<svg width="16" height="14" viewBox="0 0 16 14" fill="none" xmlns="http://www.w3.org/2000/svg">
<path d="M0.118164 6.98828C0.118164 7.22852 0.211914 7.43652 0.399414 7.6123L5.90137 13.1055C6.07715 13.2812 6.27637 13.3691 6.49902 13.3691C6.7334 13.3691 6.92676 13.293 7.0791 13.1406C7.2373 12.9883 7.31641 12.7979 7.31641 12.5693C7.31641 12.4521 7.29297 12.3438 7.24609 12.2441C7.20508 12.1387 7.14941 12.0508 7.0791 11.9805L5.21582 10.082L2.02539 7.18164L1.78809 7.64746L4.57422 7.82324H14.875C15.1152 7.82324 15.3115 7.74707 15.4639 7.59473C15.6221 7.43652 15.7012 7.23438 15.7012 6.98828C15.7012 6.74805 15.6221 6.55176 15.4639 6.39941C15.3115 6.24121 15.1152 6.16211 14.875 6.16211H4.57422L1.78809 6.3291L2.02539 6.8125L5.21582 3.89453L7.0791 2.00488C7.14941 1.93457 7.20508 1.84668 7.24609 1.74121C7.29297 1.63574 7.31641 1.52734 7.31641 1.41602C7.31641 1.1875 7.2373 0.99707 7.0791 0.844727C6.92676 0.692383 6.7334 0.616211 6.49902 0.616211C6.3877 0.616211 6.28223 0.639648 6.18262 0.686523C6.08301 0.727539 5.98047 0.794922 5.875 0.888672L0.399414 6.37305C0.211914 6.54883 0.118164 6.75391 0.118164 6.98828Z" fill="#002532"/>
</svg>
