<svg width="20" height="16" viewBox="0 0 20 16" fill="none" xmlns="http://www.w3.org/2000/svg">
<rect y="0.857117" width="20" height="14.2857" rx="2" fill="white"/>
<mask id="mask0_2801_10977" style="mask-type:alpha" maskUnits="userSpaceOnUse" x="0" y="0" width="20" height="16">
<rect y="0.857117" width="20" height="14.2857" rx="2" fill="white"/>
</mask>
<g mask="url(#mask0_2801_10977)">
<rect y="0.857117" width="20" height="14.2857" fill="#FF2936"/>
<path fill-rule="evenodd" clip-rule="evenodd" d="M0 15.1428H7.61905V0.857117H0V15.1428Z" fill="#128415"/>
<path d="M7.61961 10.5714C9.03977 10.5714 10.191 9.42014 10.191 7.99998C10.191 6.57982 9.03977 5.42855 7.61961 5.42855C6.19944 5.42855 5.04818 6.57982 5.04818 7.99998C5.04818 9.42014 6.19944 10.5714 7.61961 10.5714Z" stroke="#FAF94F" stroke-width="1.33333"/>
<path fill-rule="evenodd" clip-rule="evenodd" d="M6.66602 6.90474C6.66602 6.72065 6.81525 6.57141 6.99935 6.57141H8.23744C8.42154 6.57141 8.57078 6.72065 8.57078 6.90474V8.47617C8.57078 9.00216 8.14438 9.42855 7.6184 9.42855C7.09241 9.42855 6.66602 9.00216 6.66602 8.47617V6.90474Z" fill="white"/>
<path fill-rule="evenodd" clip-rule="evenodd" d="M7.61877 8.47618C7.88176 8.47618 8.09496 7.78679 8.09496 7.5238C8.09496 7.26081 7.88176 7.04761 7.61877 7.04761C7.35578 7.04761 7.14258 7.26081 7.14258 7.5238C7.14258 7.78679 7.35578 8.47618 7.61877 8.47618Z" fill="#1D50B5"/>
</g>
</svg>
