<svg width="284" height="32" viewBox="0 0 284 32" fill="none" xmlns="http://www.w3.org/2000/svg">
<path d="M35.1816 24.9932C35.1816 20.4844 33.9014 18.3135 30.5337 17.395C33.6787 16.3096 35.0146 14.1665 35.0146 10.2979C35.0146 3.20068 31.5356 0.751465 22.7407 0.723633H0.308105V31.2554H5.4292V20.1504H23.687C28.4741 20.1504 30.0884 21.2915 30.0884 24.9932C30.0884 27.5815 30.1997 29.6411 30.645 31.2554H36.0166C35.4321 29.6968 35.1816 27.5259 35.1816 24.9932ZM5.4292 5.45508H23.687C28.335 5.45508 29.9214 6.67969 29.9214 10.2979C29.9214 14.083 28.335 15.3911 23.687 15.3911H5.4292V5.45508Z" fill="#002532"/>
<path d="M73.0054 31.2554V26.5239H46.064V17.6733H71.3076V12.9419H46.064V5.45508H72.6436V0.723633H40.9429V31.2554H73.0054Z" fill="#002532"/>
<path d="M110.634 19.6216V21.2358C110.523 26.1899 103.676 27.0806 97.4976 27.0806C86.3091 27.0806 81.3828 24.0747 81.3828 16.0312C81.3828 7.98779 86.3091 4.73145 97.4976 4.73145C104.706 4.73145 110.551 6.29004 110.551 10.6875H115.644C115.644 4.06348 109.688 0 97.4976 0C81.4663 0 76.2617 6.37354 76.2617 16.0312C76.2617 25.6611 81.4663 31.812 97.4976 31.812C104.873 31.812 108.714 29.5576 110.634 27.0249V31.2554H115.644V14.8901H99.7241V19.6216H110.634Z" fill="#002532"/>
<path d="M127.278 31.2554V0.723633H122.157V31.2554H127.278Z" fill="#002532"/>
<path d="M150.796 31.812C162.318 31.812 169.36 30.2534 169.36 22.8779C169.36 17.5898 167.467 14.2778 159.73 13.749L143.031 12.8027C140.164 12.6079 138.522 11.6895 138.522 9.10107C138.522 6.37354 141.333 4.73145 151.074 4.73145C157.698 4.73145 163.404 5.87256 163.404 10.6875H168.525C168.525 3.42334 162.235 0 151.074 0C140.22 0 133.401 2.11523 133.401 9.07324C133.401 14.6118 135.906 17.4229 143.031 17.896L159.73 18.8423C162.402 19.0093 164.267 19.7607 164.267 22.4604C164.267 26.0229 160.203 27.0806 150.796 27.0806C144.116 27.0806 137.826 25.9673 137.826 21.1802H132.705C132.705 28.4722 139.106 31.812 150.796 31.812Z" fill="#002532"/>
<path d="M191.208 31.2554V5.45508H206.989V0.723633H170.362V5.45508H186.087V31.2554H191.208Z" fill="#002532"/>
<path d="M242.836 31.2554V26.5239H215.895V17.6733H241.139V12.9419H215.895V5.45508H242.475V0.723633H210.774V31.2554H242.836Z" fill="#002532"/>
<path d="M283.165 24.9932C283.165 20.4844 281.885 18.3135 278.517 17.395C281.662 16.3096 282.998 14.1665 282.998 10.2979C282.998 3.20068 279.519 0.751465 270.724 0.723633H248.292V31.2554H253.413V20.1504H271.67C276.458 20.1504 278.072 21.2915 278.072 24.9932C278.072 27.5815 278.183 29.6411 278.628 31.2554H284C283.416 29.6968 283.165 27.5259 283.165 24.9932ZM253.413 5.45508H271.67C276.318 5.45508 277.905 6.67969 277.905 10.2979C277.905 14.083 276.318 15.3911 271.67 15.3911H253.413V5.45508Z" fill="#002532"/>
</svg>
