<svg width="287" height="34" viewBox="0 0 287 34" fill="none" xmlns="http://www.w3.org/2000/svg">
<path d="M36.709 26.3086C36.709 21.5625 35.3613 19.2773 31.8164 18.3105C35.127 17.168 36.5332 14.9121 36.5332 10.8398C36.5332 3.36914 32.8711 0.791016 23.6133 0.761719H0V32.9004H5.39062V21.2109H24.6094C29.6484 21.2109 31.3477 22.4121 31.3477 26.3086C31.3477 29.0332 31.4648 31.2012 31.9336 32.9004H37.5879C36.9727 31.2598 36.709 28.9746 36.709 26.3086ZM5.39062 5.74219H24.6094C29.502 5.74219 31.1719 7.03125 31.1719 10.8398C31.1719 14.8242 29.502 16.2012 24.6094 16.2012H5.39062V5.74219Z" fill="#002532"/>
<path d="M76.5234 32.9004V27.9199H48.1641V18.6035H74.7363V13.623H48.1641V5.74219H76.1426V0.761719H42.7734V32.9004H76.5234Z" fill="#002532"/>
<path d="M100.166 33.4863C112.295 33.4863 119.707 31.8457 119.707 24.082C119.707 18.5156 117.715 15.0293 109.57 14.4727L91.9922 13.4766C88.9746 13.2715 87.2461 12.3047 87.2461 9.58008C87.2461 6.70898 90.2051 4.98047 100.459 4.98047C107.432 4.98047 113.438 6.18164 113.438 11.25H118.828C118.828 3.60352 112.207 0 100.459 0C89.0332 0 81.8555 2.22656 81.8555 9.55078C81.8555 15.3809 84.4922 18.3398 91.9922 18.8379L109.57 19.834C112.383 20.0098 114.346 20.8008 114.346 23.6426C114.346 27.3926 110.068 28.5059 100.166 28.5059C93.1348 28.5059 86.5137 27.334 86.5137 22.2949H81.123C81.123 29.9707 87.8613 33.4863 100.166 33.4863Z" fill="#002532"/>
<path d="M142.705 32.9004V5.74219H159.316V0.761719H120.762V5.74219H137.314V32.9004H142.705Z" fill="#002532"/>
<path d="M182.461 0.0878906C165.674 0.0878906 160.811 6.21094 160.811 16.7578C160.811 27.2754 165.674 33.4863 182.461 33.4863C199.16 33.4863 204.053 27.2754 204.053 16.7578C204.053 6.21094 199.16 0.0878906 182.461 0.0878906ZM182.461 28.5059C170.391 28.5059 166.201 25.2246 166.201 16.7578C166.201 8.29102 170.391 5.06836 182.461 5.06836C194.502 5.06836 198.662 8.29102 198.662 16.7578C198.662 25.2246 194.473 28.5059 182.461 28.5059Z" fill="#002532"/>
<path d="M246.475 26.3086C246.475 21.5625 245.127 19.2773 241.582 18.3105C244.893 17.168 246.299 14.9121 246.299 10.8398C246.299 3.36914 242.637 0.791016 233.379 0.761719H209.766V32.9004H215.156V21.2109H234.375C239.414 21.2109 241.113 22.4121 241.113 26.3086C241.113 29.0332 241.23 31.2012 241.699 32.9004H247.354C246.738 31.2598 246.475 28.9746 246.475 26.3086ZM215.156 5.74219H234.375C239.268 5.74219 240.938 7.03125 240.938 10.8398C240.938 14.8242 239.268 16.2012 234.375 16.2012H215.156V5.74219Z" fill="#002532"/>
<path d="M286.289 32.9004V27.9199H257.93V18.6035H284.502V13.623H257.93V5.74219H285.908V0.761719H252.539V32.9004H286.289Z" fill="#002532"/>
</svg>
