<svg width="195" height="34" viewBox="0 0 195 34" fill="none" xmlns="http://www.w3.org/2000/svg">
<path d="M32.2685 32.5V27.5801H5.32502V0.752449H0V32.5H32.2685Z" fill="#002532"/>
<path d="M54.6394 0.086821C38.0565 0.086821 33.2524 6.13535 33.2524 16.5539C33.2524 26.9435 38.0565 33.0788 54.6394 33.0788C71.1354 33.0788 75.9684 26.9435 75.9684 16.5539C75.9684 6.13535 71.1354 0.086821 54.6394 0.086821ZM54.6394 28.1589C42.7159 28.1589 38.5775 24.9176 38.5775 16.5539C38.5775 8.19012 42.7159 5.00668 54.6394 5.00668C66.5338 5.00668 70.6434 8.19012 70.6434 16.5539C70.6434 24.9176 66.5049 28.1589 54.6394 28.1589Z" fill="#002532"/>
<path d="M116.051 20.4029V22.0815C115.935 27.2329 108.816 28.1589 102.391 28.1589C90.7569 28.1589 85.6345 25.0334 85.6345 16.6696C85.6345 8.30588 90.7569 4.91986 102.391 4.91986C109.886 4.91986 115.964 6.54052 115.964 11.1131H121.26C121.26 4.22529 115.067 0 102.391 0C85.7213 0 80.3094 6.62734 80.3094 16.6696C80.3094 26.683 85.7213 33.0788 102.391 33.0788C110.06 33.0788 114.054 30.7346 116.051 28.1011V32.5H121.26V15.4831H104.706V20.4029H116.051Z" fill="#002532"/>
<path d="M149.448 32.5V0.752449H144.123V32.5H149.448Z" fill="#002532"/>
<path d="M189.675 27.2329L163.368 0.752449H156.22V32.5H161.545V6.39581L187.562 32.5H195V0.752449H189.675V27.2329Z" fill="#002532"/>
</svg>
