<svg width="31" height="30" viewBox="0 0 31 30" fill="none" xmlns="http://www.w3.org/2000/svg">
<g clip-path="url(#clip0_2401_3445)">
<path d="M5.16615 6.95958L6.66606 8.39819L7.11537 7.91865L6.54597 7.37865L7.47565 6.35995L7.11537 5.99966L6.18569 7.02004L5.76578 6.60013L7.11537 5.15985L6.75593 4.79956L4.89573 6.81009C4.98559 6.86972 5.07545 6.89995 5.16615 6.95958ZM8.46412 3.93035L8.49435 6.32971L9.06375 5.99966V5.52013L10.4142 4.73994L10.8039 5.01036L11.3741 4.68031L9.12589 3.24002L8.31547 3.69016C8.35788 3.71513 8.39358 3.75004 8.41947 3.79189C8.44537 3.83373 8.46069 3.88126 8.46412 3.93035ZM9.9338 4.47035L9.06543 4.98012L9.03603 3.86988L9.9338 4.47035ZM14.164 4.05045H14.7938V3.39035H15.8738L16.3584 4.04961H17.0781L16.5381 3.32988L16.5986 3.29965C16.7363 3.22413 16.8493 3.11036 16.9238 2.97207C16.9983 2.83377 17.0312 2.67687 17.0185 2.5203C17.0267 2.40988 17.0131 2.29893 16.9782 2.19383C16.9434 2.08873 16.8882 1.99154 16.8157 1.90787C16.7432 1.8242 16.6548 1.75569 16.5557 1.70629C16.4567 1.65689 16.3488 1.62756 16.2383 1.62001H14.0456C14.098 1.7038 14.1384 1.79455 14.1656 1.88959L14.164 4.05045ZM16.0225 2.16001C16.1106 2.16 16.1951 2.19458 16.258 2.25632C16.3208 2.31805 16.3569 2.40199 16.3584 2.49006V2.51946C16.3878 2.69918 16.2383 2.8495 16.0586 2.8789H14.7628V2.16001H16.0225ZM28.776 13.2003C28.6256 12.3604 28.0856 11.76 27.4558 11.76C27.394 11.7552 27.332 11.7656 27.2752 11.7902C26.5555 11.9095 26.1658 12.6897 26.3153 13.6202C26.4656 14.4902 26.9754 15.0596 27.6355 15.0596C27.6969 15.0644 27.7585 15.0543 27.8152 15.0302C28.5358 14.9101 28.9255 14.1299 28.776 13.2003ZM27.696 14.3701H27.5759C27.2156 14.3701 26.9158 14.0401 26.8259 13.5303C26.7352 12.9307 26.9452 12.5108 27.3659 12.4503H27.4852C27.8454 12.4503 28.1453 12.7804 28.236 13.2901C28.3552 13.857 28.1453 14.3097 27.696 14.3701ZM23.166 5.03891L22.9258 6.86972L22.956 6.89995L24.6953 6.48004L23.7354 7.77L24.2158 8.22014L25.6854 6.29864L25.1454 5.78803L23.6153 6.11808L23.7958 4.5283L23.2256 3.9883L23.166 3.92867C23.1688 3.98435 23.1595 4.03998 23.1388 4.09173C23.118 4.14348 23.0864 4.19014 23.0459 4.22849L21.546 5.69817L22.0255 6.14831L23.166 5.03891ZM19.3255 4.82896C19.5564 4.91238 19.8006 4.95307 20.0461 4.94905C20.3072 4.96613 20.5671 4.89976 20.7881 4.75953C21.0091 4.61929 21.1798 4.41245 21.2755 4.16886C21.3332 3.99414 21.3496 3.80846 21.3235 3.62634C21.2974 3.44423 21.2296 3.27061 21.1252 3.11909C20.8895 2.79004 20.5523 2.54751 20.1653 2.42876C19.9347 2.34556 19.6907 2.30514 19.4456 2.3095C19.1828 2.28226 18.9184 2.34435 18.6952 2.48574C18.472 2.62714 18.3029 2.83959 18.2153 3.08885C17.9759 3.77918 18.426 4.49975 19.3255 4.8298V4.82896ZM18.8157 3.29881C18.8613 3.1558 18.955 3.03295 19.0808 2.95107C19.2066 2.86918 19.3568 2.8333 19.5061 2.8495C19.6602 2.85009 19.8128 2.88061 19.9554 2.93936C20.4954 3.14932 20.7658 3.539 20.6155 3.9589C20.57 4.10192 20.4766 4.22484 20.3509 4.30687C20.2253 4.3889 20.0752 4.42499 19.926 4.40905C19.7715 4.40813 19.6187 4.37762 19.4758 4.31919C18.9358 4.11007 18.6654 3.71956 18.8157 3.29965V3.29881ZM15.4858 0C7.20439 0 0.48584 6.71855 0.48584 15C0.48584 23.2815 7.20439 30 15.4858 30C23.7673 30 30.4858 23.2815 30.4858 15C30.4858 6.71855 23.7656 0 15.4858 0ZM15.4858 29.3995C7.54032 29.3995 1.08547 22.9497 1.08547 15C1.08547 7.05028 7.54032 0.59963 15.4858 0.59963C23.4314 0.59963 29.8854 7.05448 29.8854 15C29.8854 22.9455 23.4356 29.3995 15.4858 29.3995ZM2.19571 13.5295C2.23115 13.5061 2.27358 13.4957 2.3158 13.5001C2.3678 13.4924 2.42085 13.5028 2.46613 13.5295L4.38596 15L4.47582 14.3701L4.08614 14.0695L4.32549 12.5402L4.77563 12.3898L4.86549 11.76L2.34604 12.5998L2.19571 13.5295ZM3.78549 12.7199L3.636 13.71L2.76595 13.0499L3.78549 12.7199ZM15.5757 10.0778L15.6059 10.0484L15.5757 10.0182C15.1627 9.7055 14.8507 9.27821 14.6788 8.78954C14.5882 8.57354 14.4671 8.37162 14.3193 8.18991C14.2561 8.11596 14.1779 8.05631 14.0899 8.0149C14.0018 7.97349 13.906 7.95127 13.8087 7.94972C13.706 7.94357 13.6029 7.9532 13.503 7.97828H13.4434L13.4728 8.0379C13.5027 8.11231 13.5474 8.1799 13.6041 8.23662C13.6608 8.29333 13.7284 8.338 13.8028 8.36795H13.9229C14.1035 8.48805 14.1934 9.26824 14.1934 9.65791C14.1944 9.67001 14.1927 9.68217 14.1886 9.69357C14.1844 9.70498 14.1779 9.71535 14.1693 9.72397C14.1608 9.73259 14.1505 9.73925 14.1391 9.74351C14.1277 9.74776 14.1156 9.74951 14.1035 9.74861C14.0683 9.74952 14.0333 9.74172 14.0018 9.7259C13.9704 9.71008 13.9432 9.68672 13.9229 9.65791C13.8685 9.60146 13.8033 9.55647 13.7312 9.5256C13.659 9.49474 13.5815 9.47862 13.503 9.47819C13.3564 9.46835 13.2117 9.51611 13.0997 9.61131C12.9877 9.70651 12.9173 9.84164 12.9034 9.98796V10.0484C12.9173 10.1948 12.9877 10.3299 13.0997 10.4251C13.2117 10.5203 13.3564 10.568 13.503 10.5582C13.5819 10.5605 13.6603 10.5456 13.7328 10.5146C13.8053 10.4836 13.8702 10.4371 13.9229 10.3785C13.9455 10.3522 13.9731 10.3307 14.0041 10.3152C14.0351 10.2998 14.0689 10.2907 14.1035 10.2886C14.1157 10.2868 14.1282 10.2878 14.14 10.2917C14.1517 10.2955 14.1624 10.3021 14.1711 10.3109C14.1799 10.3196 14.1864 10.3303 14.1903 10.342C14.1942 10.3538 14.1952 10.3663 14.1934 10.3785C14.1934 10.7682 14.1035 11.5483 13.9229 11.6684H13.8054C13.731 11.6984 13.6634 11.7431 13.6066 11.7998C13.5499 11.8565 13.5053 11.9241 13.4753 11.9985L13.4459 12.0581H13.503C13.6009 12.0832 13.702 12.0934 13.8028 12.0883C13.9006 12.0899 13.9975 12.069 14.086 12.0274C14.1745 11.9858 14.2523 11.9245 14.3135 11.8482C14.4836 11.6841 14.6093 11.4795 14.6788 11.2536C14.8702 10.7902 15.1794 10.3849 15.5757 10.0778ZM15.2154 6.77818C15.269 6.77834 15.3214 6.7626 15.366 6.73295C15.4106 6.7033 15.4454 6.66108 15.4659 6.61163C15.4865 6.56218 15.4919 6.50774 15.4815 6.4552C15.4711 6.40267 15.4453 6.35441 15.4075 6.31654C15.3696 6.27867 15.3213 6.2529 15.2688 6.24249C15.2163 6.23208 15.1618 6.23751 15.1124 6.25808C15.0629 6.27865 15.0207 6.31344 14.9911 6.35804C14.9614 6.40264 14.9457 6.45504 14.9458 6.50859C14.9458 6.62785 15.0659 6.74794 15.2154 6.77818ZM15.1256 7.43827H17.4955C17.5202 7.43996 17.545 7.43655 17.5683 7.42826C17.5916 7.41997 17.613 7.40698 17.6311 7.39009C17.6492 7.37319 17.6636 7.35276 17.6734 7.33006C17.6833 7.30736 17.6884 7.28288 17.6884 7.25813C17.6884 7.23338 17.6833 7.2089 17.6734 7.1862C17.6636 7.1635 17.6492 7.14307 17.6311 7.12618C17.613 7.10928 17.5916 7.09629 17.5683 7.088C17.545 7.07971 17.5202 7.0763 17.4955 7.07799H15.1256C15.0788 7.08116 15.0348 7.10122 15.0017 7.13444C14.9686 7.16766 14.9488 7.21177 14.9458 7.25855C14.9445 7.28258 14.9483 7.30661 14.9568 7.3291C14.9653 7.35159 14.9785 7.37205 14.9954 7.38914C15.0124 7.40623 15.0327 7.41958 15.0551 7.42833C15.0775 7.43709 15.1015 7.44104 15.1256 7.43995V7.43827ZM15.4858 4.91882C9.93548 4.91882 5.40802 9.4488 5.43573 14.9966C5.46344 20.5445 9.96571 25.0745 15.5136 25.0467C21.0631 25.0467 25.5628 20.5462 25.5628 14.9689C25.5628 9.4488 21.0631 4.91882 15.485 4.91882H15.4858ZM9.12589 22.1099C7.38957 20.5693 6.27935 18.4448 6.00597 16.1396H9.12589V22.1099ZM9.12589 13.7999H6.00597C6.2944 11.5178 7.40337 9.41872 9.12589 7.89429V13.7999ZM18.5755 24.06C16.2538 24.8494 13.7167 24.7094 11.4959 23.6694V16.1396H14.1959C14.068 15.7574 14.018 15.3534 14.0489 14.9516C14.0798 14.5497 14.1909 14.1581 14.3756 13.7999H11.4959V6.32971C14.2555 5.06998 17.4653 5.15985 20.1057 6.62953C20.2324 6.71262 20.3289 6.83444 20.3808 6.97685C20.4327 7.11926 20.4371 7.27461 20.3935 7.41975C20.3499 7.56489 20.2605 7.69205 20.1387 7.78226C20.0169 7.87246 19.8692 7.9209 19.7177 7.92033H18.5159C18.402 7.90866 18.287 7.92134 18.1784 7.95754C18.0698 7.99374 17.9701 8.05262 17.886 8.13028C17.556 8.4301 17.6761 8.76015 16.9858 8.76015H15.0987C15.3284 9.20853 15.6693 9.5905 16.0888 9.86955H18.3992C18.4453 9.87027 18.4901 9.88505 18.5276 9.91191C18.5652 9.93877 18.5936 9.97643 18.6091 10.0199C18.6071 10.0362 18.6087 10.0527 18.614 10.0683C18.6192 10.0838 18.6279 10.098 18.6394 10.1097V10.14C18.6303 10.1895 18.6045 10.2344 18.5663 10.2671C18.528 10.2998 18.4797 10.3184 18.4294 10.3197H16.0855C15.6202 10.5848 15.2689 11.0121 15.0987 11.5198H19.3288C19.3941 11.5141 19.4598 11.5213 19.5222 11.5411C19.5847 11.5608 19.6426 11.5926 19.6928 11.6347C19.7429 11.6768 19.7843 11.7284 19.8145 11.7865C19.8447 11.8446 19.8632 11.9081 19.8689 11.9733C19.8745 12.0385 19.8673 12.1042 19.8476 12.1667C19.8279 12.2291 19.7961 12.2871 19.7539 12.3372C19.7118 12.3874 19.6603 12.4287 19.6022 12.4589C19.5441 12.4891 19.4806 12.5076 19.4153 12.5133H17.1982C16.8476 12.5133 16.5005 12.5824 16.1765 12.7165C15.8526 12.8507 15.5583 13.0473 15.3104 13.2953C15.0625 13.5432 14.8658 13.8375 14.7317 14.1614C14.5975 14.4853 14.5284 14.8325 14.5284 15.1831C14.5284 15.5337 14.5975 15.8808 14.7317 16.2048C14.8658 16.5287 15.0625 16.823 15.3104 17.0709C15.5583 17.3188 15.8526 17.5155 16.1765 17.6496C16.5005 17.7838 16.8476 17.8529 17.1982 17.8529H19.868C19.9237 17.8529 19.9771 17.875 20.0165 17.9144C20.0558 17.9537 20.078 18.0071 20.078 18.0628C20.078 18.1185 20.0558 18.1719 20.0165 18.2113C19.9771 18.2507 19.9237 18.2728 19.868 18.2728H17.1386C16.6214 18.2728 16.1254 18.4782 15.7597 18.8439C15.394 19.2096 15.1885 19.7056 15.1885 20.2228C15.1885 20.74 15.394 21.236 15.7597 21.6017C16.1254 21.9674 16.6214 22.1729 17.1386 22.1729H18.1884C18.3149 22.1712 18.4405 22.1949 18.5577 22.2425C18.6749 22.2901 18.7814 22.3608 18.8709 22.4503C18.9604 22.5397 19.031 22.6462 19.0787 22.7635C19.1263 22.8807 19.15 23.0063 19.1483 23.1328C19.1373 23.3229 19.0795 23.5073 18.98 23.6697C18.8805 23.832 18.7424 23.9673 18.5781 24.0633L18.5755 24.06ZM22.657 8.64005C23.4919 9.57888 24.1333 10.6732 24.5445 11.8603C24.9557 13.0474 25.1287 14.304 25.0535 15.5581C24.9783 16.8122 24.6564 18.0391 24.1062 19.1685C23.5561 20.298 22.7885 21.3078 21.8475 22.1401C21.1225 22.7829 20.302 23.309 19.4153 23.6997L19.386 23.7299H19.4153C19.6057 23.6407 19.7763 23.5145 19.9174 23.3587C20.0584 23.2029 20.167 23.0205 20.2368 22.8222C20.3066 22.624 20.3362 22.4138 20.324 22.204C20.3117 21.9942 20.2578 21.7889 20.1653 21.6001C20.0372 21.3253 19.8342 21.0922 19.5795 20.9276C19.3249 20.763 19.029 20.6736 18.7259 20.6696H17.0462C16.9905 20.6696 16.9371 20.6475 16.8978 20.6081C16.8584 20.5687 16.8363 20.5153 16.8363 20.4597C16.8363 20.404 16.8584 20.3506 16.8978 20.3112C16.9371 20.2718 16.9905 20.2497 17.0462 20.2497H19.8966C20.5129 20.2084 21.0905 19.9344 21.5124 19.4832C21.9343 19.032 22.1691 18.4374 22.1691 17.8197C22.1691 17.202 21.9343 16.6073 21.5124 16.1562C21.0905 15.705 20.5129 15.431 19.8966 15.3897H17.1361C17.0804 15.3897 17.027 15.3676 16.9876 15.3282C16.9482 15.2888 16.9261 15.2354 16.9261 15.1797C16.9261 15.124 16.9482 15.0706 16.9876 15.0313C17.027 14.9919 17.0804 14.9698 17.1361 14.9698H19.2356C19.7642 14.9762 20.2888 14.8778 20.7791 14.6803C21.2695 14.4828 21.7158 14.1901 22.0924 13.8191C22.4689 13.4481 22.7682 13.0062 22.9729 12.5188C23.1777 12.0315 23.2838 11.5084 23.2852 10.9798C23.2831 10.1687 23.0434 9.37604 22.5957 8.69968C22.5957 8.67029 22.626 8.67029 22.6554 8.64005C22.6554 8.67029 22.626 8.64005 22.6554 8.64005H22.657ZM16.3257 6.74962C16.3792 6.74979 16.4316 6.73405 16.4762 6.7044C16.5208 6.67475 16.5556 6.63252 16.5762 6.58307C16.5967 6.53363 16.6022 6.47919 16.5918 6.42665C16.5814 6.37412 16.5556 6.32585 16.5177 6.28798C16.4798 6.25011 16.4316 6.22434 16.379 6.21394C16.3265 6.20353 16.2721 6.20895 16.2226 6.22953C16.1732 6.2501 16.1309 6.28489 16.1013 6.32949C16.0716 6.37409 16.0559 6.42649 16.0561 6.48004C16.0559 6.5155 16.0627 6.55066 16.0761 6.58347C16.0896 6.61628 16.1095 6.64608 16.1345 6.67116C16.1596 6.69624 16.1894 6.71609 16.2222 6.72956C16.255 6.74302 16.2902 6.74985 16.3257 6.74962ZM25.4452 9.26908L25.8358 9.05912L26.4656 10.2895L26.9158 10.0493L26.2859 8.8181L26.6453 8.60814L27.5759 10.3785L28.0252 10.1383L26.7654 7.70785C26.7217 7.80755 26.6484 7.8914 26.5555 7.94804L24.7255 8.93819L25.9853 11.3686L26.4052 11.1284L25.4452 9.26908ZM5.76578 8.73411L4.95619 10.3541L3.27656 9.48407L2.91627 10.1744H3.03637C3.09804 10.1697 3.15993 10.1798 3.21693 10.2038L5.07629 11.1637L6.18653 8.9743L5.76578 8.73411ZM17.4057 6.75382C17.4424 6.75587 17.4791 6.75041 17.5137 6.73776C17.5482 6.72512 17.5798 6.70556 17.6065 6.68029C17.6333 6.65502 17.6546 6.62456 17.6691 6.59078C17.6836 6.55699 17.6912 6.5206 17.6912 6.48382C17.6912 6.44704 17.6836 6.41064 17.6691 6.37686C17.6546 6.34308 17.6333 6.31262 17.6065 6.28735C17.5798 6.26207 17.5482 6.24252 17.5137 6.22988C17.4791 6.21723 17.4424 6.21177 17.4057 6.21382C17.3367 6.21767 17.2717 6.24779 17.2243 6.29801C17.1768 6.34822 17.1503 6.41471 17.1503 6.48382C17.1503 6.55293 17.1768 6.61942 17.2243 6.66963C17.2717 6.71985 17.3367 6.74997 17.4057 6.75382Z" fill="white"/>
</g>
<defs>
<clipPath id="clip0_2401_3445">
<rect width="30" height="30" fill="white" transform="translate(0.48584)"/>
</clipPath>
</defs>
</svg>
