<svg width="110" height="10" viewBox="0 0 110 10" fill="none" xmlns="http://www.w3.org/2000/svg">
<g clip-path="url(#clip0_2401_3407)">
<path d="M9.24757 0H9.30385C12.2769 3.22221 15.2225 6.47087 18.1406 9.74599C17.1102 9.74599 16.0855 9.74599 15.0608 9.70126C14.5576 9.1028 14.0482 8.51494 13.5325 7.93765C10.7081 7.93765 7.88806 7.93765 5.06514 7.93765C4.52394 8.53803 3.98418 9.13696 3.45019 9.74166H0.48584C3.35061 6.44104 6.35393 3.26598 9.24757 0ZM6.62958 6.21302H12.007C11.1079 5.19555 10.203 4.16366 9.30385 3.13898C8.39319 4.14923 7.49407 5.16813 6.62958 6.21302ZM23.505 0.288642H26.0653C26.0739 2.86766 26.0653 5.44234 26.0653 8.02136C29.2836 8.04589 32.4977 8.02136 35.7175 8.03579C35.4721 8.61308 35.2326 9.17593 34.9959 9.75032C31.1627 9.75032 27.3339 9.76043 23.4993 9.75032V0.288642M40.9621 0.288642C44.4518 0.282869 47.9424 0.282869 51.434 0.288642C52.7084 0.298744 54.1328 0.409872 55.0983 1.3494C56.0927 2.40439 56.1086 4.17376 55.2874 5.33266C54.498 6.3328 53.1226 6.53774 51.9334 6.58681C49.1292 6.63299 46.3251 6.58681 43.5267 6.60268C43.5209 7.65238 43.5175 8.70207 43.5166 9.75177H40.965V0.288642M43.5195 2.0075C43.5195 2.96724 43.5195 3.92264 43.5296 4.87661H50.4772C51.2464 4.84774 52.1123 4.92279 52.7618 4.41189C53.4964 3.66287 53.1211 2.11863 51.9767 2.08255C49.1624 1.90359 46.3381 2.04358 43.5195 2.0075ZM62.4832 0.288642H65.0132V9.75177H62.4832V0.288642ZM73.0187 0.288642C74.0982 0.333381 75.2874 0.0490691 76.2572 0.663876C79.5016 2.45779 82.7199 4.29211 85.9744 6.07158C85.9845 4.14201 85.9744 2.21244 85.9744 0.282869C86.7739 0.282869 87.5778 0.292972 88.3831 0.282869V10H88.2893C83.9904 7.59465 79.6834 5.20037 75.3682 2.81715C75.3523 5.12628 75.3682 7.43542 75.3682 9.74455H73.0187V0.288642ZM96.3568 0.288642C100.615 0.27421 104.872 0.27421 109.128 0.288642V1.9873C105.713 2.00318 102.3 1.9873 98.881 1.9974V4.04099C102.286 4.05686 105.689 4.04099 109.093 4.04099C109.118 4.45086 109.168 5.26483 109.193 5.6747C105.759 5.87531 102.32 5.70068 98.881 5.76995C98.8868 6.51465 98.8868 7.25934 98.881 8.00404C102.4 8.02425 105.92 7.99394 109.438 8.01992V8.24506C109.323 8.61452 109.089 9.35488 108.973 9.72435C104.77 9.73397 100.563 9.73397 96.3525 9.72435C96.3429 6.56949 96.3429 3.41848 96.3525 0.271323L96.3568 0.288642Z" fill="white"/>
</g>
<defs>
<clipPath id="clip0_2401_3407">
<rect width="108.952" height="10" fill="white" transform="translate(0.48584)"/>
</clipPath>
</defs>
</svg>
