<svg width="40" height="24" viewBox="0 0 40 24" fill="none" xmlns="http://www.w3.org/2000/svg">
<path d="M33.3469 23.8293V18.6787H31.2101V23.8293H33.3469ZM22.0349 21.6906V18.7565H19.9632V20.9995C19.9632 21.6513 19.9371 21.8341 19.8979 22.0037C19.7536 22.4732 19.2555 22.6813 18.7444 22.6813C18.0366 22.6813 17.709 22.4074 17.5778 21.9775C17.5385 21.8344 17.5255 21.6778 17.5124 21.521C17.4993 21.3517 17.5124 21.1689 17.5124 20.9733V18.7567H15.4155V21.7047C15.4155 22.3702 15.6385 22.8655 16.0054 23.2044C16.6344 23.8174 17.6964 24 18.6794 24C19.8724 24 20.7901 23.8304 21.445 23.1916C21.786 22.8653 22.0349 22.4351 22.0349 21.6915V21.6906ZM11.8633 21.3254C11.7594 21.3076 11.6541 21.299 11.5487 21.2996H9.18942C9.08404 21.2996 8.97884 21.3082 8.87489 21.3254C8.94572 21.2564 9.01143 21.1823 9.0715 21.1038L10.133 19.3563C10.2248 19.2112 10.3037 19.0585 10.3688 18.8998C10.4358 19.0619 10.5147 19.2188 10.6049 19.3693L11.6928 21.1298C11.7436 21.1999 11.8006 21.2652 11.8633 21.325V21.3254ZM15.8218 23.8293L11.103 16.7881H8.45552L9.14996 17.6097C9.17008 17.6254 9.19203 17.6387 9.21534 17.6492C9.19191 17.6591 9.16992 17.6722 9.14996 17.688L5.03424 23.8295H7.42016L8.06253 22.7733C8.08439 22.7328 8.09796 22.6885 8.10245 22.6427C8.1286 22.6427 8.19421 22.6685 8.25982 22.6685H12.5187C12.568 22.67 12.6171 22.6612 12.6628 22.6427C12.6604 22.6794 12.6695 22.716 12.6889 22.7473L13.3577 23.8293H15.8218ZM30.6336 21.1819C30.6336 20.6079 30.3975 19.9426 29.6639 19.0169L27.8941 16.7872H25.4298L26.8322 18.3519C26.9987 18.5302 27.1783 18.6958 27.3697 18.8473C27.029 18.6515 26.5966 18.5735 26.2557 18.5735C25.4431 18.5735 24.6169 18.743 23.8833 19.1475C23.0966 19.5772 22.5722 20.2948 22.5722 21.2471C22.5722 21.9775 22.9 22.5382 23.3194 22.9684C24.2634 23.9071 25.9806 23.9984 26.6094 23.9984C27.5399 23.9984 28.9953 23.7898 29.8212 23.0465C30.3065 22.603 30.6338 21.9905 30.6338 21.1821L30.6336 21.1819ZM28.5893 21.2483C28.5893 21.783 28.2351 22.187 27.7895 22.4086C27.4225 22.6044 26.9898 22.6564 26.6099 22.6564C26.23 22.6564 25.784 22.5782 25.4169 22.3956C24.9714 22.174 24.6303 21.7435 24.6303 21.2741C24.6303 20.7135 25.0627 20.2699 25.5743 20.0483C25.8888 19.9052 26.269 19.8529 26.5702 19.8529C26.8588 19.8529 27.2782 19.8917 27.606 20.0225C28.1958 20.2692 28.5893 20.7387 28.5893 21.2483ZM32.6681 0.000453663C31.1334 -0.00214033 29.6432 0.512747 28.4406 1.4611C27.2369 0.514872 25.7476 0.000152831 24.2134 0.000152831C22.6792 0.000152831 21.1899 0.514872 19.9862 1.4611C18.7825 0.514777 17.2931 0 15.7589 0C14.2246 0 12.7352 0.514777 11.5315 1.4611C10.3287 0.512714 8.83839 -0.00217148 7.30362 0.000453663C3.53707 0.000453663 0.48584 3.03586 0.48584 6.78287C0.48584 10.5299 3.53707 13.5655 7.30362 13.5655C8.83821 13.5679 10.3284 13.0531 11.5311 12.1049C12.7348 13.0512 14.2242 13.566 15.7584 13.566C17.2926 13.566 18.782 13.0512 19.9857 12.1049C21.1895 13.0512 22.6789 13.566 24.2132 13.566C25.7474 13.566 27.2369 13.0512 28.4406 12.1049C29.6432 13.0532 31.1334 13.5681 32.6681 13.5655C36.4342 13.5655 39.4858 10.5301 39.4858 6.78287C39.4858 3.03563 36.4353 0.000453663 32.6681 0.000453663ZM10.4147 10.9964C9.74533 11.4857 8.96888 11.8102 8.14905 11.9433C7.32922 12.0764 6.48935 12.0142 5.69832 11.762C4.90729 11.5098 4.18761 11.0746 3.59831 10.4922C3.00901 9.9098 2.56687 9.19673 2.30813 8.41147C2.0494 7.62621 1.98144 6.79113 2.10984 5.9747C2.23823 5.15826 2.55932 4.38373 3.04677 3.7146C3.53423 3.04548 4.17416 2.50082 4.91411 2.12529C5.65406 1.74976 6.47294 1.55405 7.30362 1.55422C8.42273 1.55697 9.51216 1.91253 10.4154 2.56982C9.46042 3.76868 8.94075 5.25344 8.94075 6.7831C8.94075 8.31275 9.46042 9.79751 10.4154 10.9964H10.4147ZM11.5306 9.88971C10.8626 8.99022 10.5021 7.90134 10.5021 6.78298C10.5021 5.66463 10.8626 4.57575 11.5306 3.67626C12.1986 4.57575 12.5591 5.66463 12.5591 6.78298C12.5591 7.90134 12.1986 8.99022 11.5306 9.88971ZM18.8696 10.9964C17.9671 11.655 16.877 12.0102 15.7577 12.0102C14.6384 12.0102 13.5483 11.655 12.6458 10.9964C13.6009 9.79762 14.1207 8.31287 14.1207 6.78321C14.1207 5.25355 13.6009 3.76881 12.6458 2.57005C13.5482 1.91127 14.6384 1.55606 15.7577 1.55606C16.877 1.55606 17.9672 1.91127 18.8696 2.57005C17.9146 3.76886 17.3949 5.25359 17.3949 6.78321C17.3949 8.31284 17.9146 9.79757 18.8696 10.9964ZM19.9862 9.88971C19.3182 8.99022 18.9577 7.90134 18.9577 6.78298C18.9577 5.66463 19.3182 4.57575 19.9862 3.67626C20.6545 4.57563 21.0151 5.66456 21.0151 6.78298C21.0151 7.90141 20.6545 8.99033 19.9862 9.88971ZM27.3254 10.9964C26.4229 11.655 25.3328 12.0102 24.2135 12.0102C23.0942 12.0102 22.0041 11.655 21.1016 10.9964C22.0567 9.79762 22.5765 8.31287 22.5765 6.78321C22.5765 5.25355 22.0567 3.76881 21.1016 2.57005C22.004 1.91127 23.0942 1.55606 24.2135 1.55606C25.3328 1.55606 26.423 1.91127 27.3254 2.57005C26.3704 3.76886 25.8507 5.25359 25.8507 6.78321C25.8507 8.31284 26.3704 9.79757 27.3254 10.9964ZM28.4413 9.88971C27.7733 8.99022 27.4128 7.90134 27.4128 6.78298C27.4128 5.66463 27.7733 4.57575 28.4413 3.67626C29.1093 4.57575 29.4698 5.66463 29.4698 6.78298C29.4698 7.90134 29.1093 8.99022 28.4413 9.88971ZM32.6685 12.0122C31.5495 12.0097 30.46 11.6542 29.5567 10.9971C30.5119 9.7983 31.0316 8.31356 31.0316 6.7839C31.0316 5.25424 30.5119 3.76949 29.5567 2.57073C30.46 1.91357 31.5494 1.55802 32.6685 1.55513C35.5734 1.55513 37.9247 3.89376 37.9247 6.78378C37.9247 9.67381 35.5729 12.0115 32.6681 12.0115L32.6685 12.0122Z" fill="white"/>
</svg>
