<svg width="31" height="30" viewBox="0 0 31 30" fill="none" xmlns="http://www.w3.org/2000/svg">
<g clip-path="url(#clip0_2401_3411)">
<path d="M30.4858 14.6563C30.4813 14.6597 30.476 14.6622 30.4704 14.6634C30.4649 14.6646 30.4591 14.6645 30.4535 14.6632C30.4457 14.6606 30.4388 14.6559 30.4335 14.6497C30.3593 14.3947 30.3882 14.1293 30.3682 13.87C30.2888 12.8469 30.1065 11.8345 29.8242 10.848C29.3415 9.14137 28.5492 7.53816 27.4868 6.11841C26.1778 4.3643 24.5713 2.94523 22.6507 1.88699C21.035 1.0004 19.2686 0.422148 17.4416 0.18173C16.5855 0.0616467 15.7202 0.0206983 14.8567 0.0594035C12.8722 0.157111 10.972 0.610642 9.16707 1.455C7.87663 2.05627 6.68024 2.84175 5.61529 3.7869C3.69466 5.49139 2.28264 7.53979 1.41152 9.96323C1.00041 11.1101 0.730341 12.3028 0.607284 13.5149C0.548081 14.0869 0.503102 14.6632 0.524246 15.2394C0.594597 17.3232 1.01401 19.327 1.88745 21.2307C2.50418 22.5792 3.32067 23.8269 4.30937 24.9317C5.73178 26.5231 7.40944 27.7721 9.36313 28.6469C10.7934 29.283 12.3133 29.6944 13.8691 29.8663C14.0778 29.8901 14.2893 29.8909 14.4942 29.9463C14.4997 29.9509 14.5039 29.9569 14.5065 29.9636C14.5066 29.9648 14.5066 29.9659 14.5065 29.9671C14.5078 29.9728 14.5079 29.9787 14.5066 29.9845C14.5054 29.9902 14.5028 29.9956 14.4992 30.0002C14.4992 29.9879 14.4992 29.9759 14.4992 29.9617C11.4065 29.7709 8.45087 28.617 6.04624 26.6616C4.51467 25.4213 3.24143 23.8921 2.29879 22.1609C1.56251 20.8127 1.04048 19.358 0.751446 17.8491C0.611943 17.1011 0.527908 16.3437 0.500027 15.5833C0.418911 13.7407 0.686861 11.9512 1.27235 10.2083C1.86488 8.43714 2.78942 6.79528 3.99645 5.3706C6.31489 2.59905 9.55676 0.759932 13.124 0.192501C14.0768 0.0375155 15.0426 -0.0230434 16.0073 0.0117039C17.9796 0.0815508 19.9187 0.539848 21.7138 1.36037C23.5675 2.20666 25.1737 3.39569 26.545 4.89669C28.1511 6.65542 29.2821 8.68342 29.9145 10.9857C30.1788 11.9403 30.3473 12.9189 30.4174 13.9069C30.4347 14.1562 30.437 14.407 30.4524 14.654C30.4635 14.6563 30.4747 14.6563 30.4858 14.6563Z" fill="white"/>
<path d="M15.5383 15.0005H15.5342V15.0045H15.5383V15.0005Z" fill="white"/>
<path d="M15.534 15.0023C12.8138 15.0023 10.0938 15.0038 7.37403 15.0069C7.21564 15.0069 7.18527 14.955 7.18873 14.8084C7.23563 12.8404 7.89839 11.1094 9.17702 9.6153C10.4841 8.0893 12.1468 7.18108 14.1154 6.82141C14.5241 6.74678 14.9408 6.74447 15.3529 6.69793C15.5367 6.67792 15.5409 6.77486 15.5405 6.9145C15.5377 9.06688 15.5369 11.2193 15.5382 13.3716C15.5382 13.9133 15.5355 14.4568 15.534 15.0023Z" fill="white"/>
<path d="M15.5317 23.1136C15.5374 20.4099 15.539 17.7064 15.5367 15.0032C18.2193 15.0032 20.9019 15.0016 23.5845 14.9985C23.7336 14.9985 23.7667 15.0466 23.7625 15.1855C23.724 16.5526 23.3834 17.8359 22.7176 19.0322C22.3089 19.7735 21.7876 20.4467 21.1725 21.0279C20.0031 22.1296 18.6341 22.8497 17.0549 23.1575C16.6208 23.2425 16.1807 23.259 15.7436 23.3075C15.5917 23.3229 15.5314 23.2844 15.5317 23.1136Z" fill="white"/>
<path d="M7.12073 6.46263C7.03231 6.27029 6.87623 6.19336 6.61674 6.19066C6.57769 6.18999 6.53898 6.19794 6.50336 6.21397C6.46774 6.23 6.43609 6.25369 6.41068 6.28337C6.07597 6.67882 5.7428 7.07554 5.41116 7.47355C5.36195 7.53241 5.33812 7.58165 5.42192 7.64589C5.58377 7.77052 5.736 7.90824 5.89016 8.04287C5.97012 8.11327 6.01895 8.12635 6.10122 8.02364C6.39646 7.65397 6.70747 7.2966 7.01386 6.93578C7.1315 6.79499 7.20646 6.64766 7.12073 6.46263ZM8.38936 7.51395C8.38732 7.42051 8.35833 7.32966 8.30588 7.25234C8.25343 7.17501 8.17976 7.1145 8.09373 7.07811C7.90882 7.00579 7.73852 7.02733 7.6055 7.18351C7.24452 7.60665 6.88854 8.03287 6.52909 8.45524C6.47604 8.51718 6.49295 8.55026 6.54639 8.59411C6.724 8.7399 6.90122 8.88646 7.07499 9.03687C7.15187 9.10458 7.20531 9.10304 7.27489 9.01879C7.6032 8.61912 7.93842 8.22482 8.26942 7.8263C8.34246 7.73744 8.39628 7.63589 8.38859 7.51279L8.38936 7.51395ZM8.38936 7.51395C8.38732 7.42051 8.35833 7.32966 8.30588 7.25234C8.25343 7.17501 8.17976 7.1145 8.09373 7.07811C7.90882 7.00579 7.73852 7.02733 7.6055 7.18351C7.24452 7.60665 6.88854 8.03287 6.52909 8.45524C6.47604 8.51718 6.49295 8.55026 6.54639 8.59411C6.724 8.7399 6.90122 8.88646 7.07499 9.03687C7.15187 9.10458 7.20531 9.10304 7.27489 9.01879C7.6032 8.61912 7.93842 8.22482 8.26942 7.8263C8.34246 7.73744 8.39628 7.63589 8.38859 7.51279L8.38936 7.51395ZM7.12073 6.46263C7.03231 6.27029 6.87623 6.19336 6.61674 6.19066C6.57769 6.18999 6.53898 6.19794 6.50336 6.21397C6.46774 6.23 6.43609 6.25369 6.41068 6.28337C6.07597 6.67882 5.7428 7.07554 5.41116 7.47355C5.36195 7.53241 5.33812 7.58165 5.42192 7.64589C5.58377 7.77052 5.736 7.90824 5.89016 8.04287C5.97012 8.11327 6.01895 8.12635 6.10122 8.02364C6.39646 7.65397 6.70747 7.2966 7.01386 6.93578C7.1315 6.79499 7.20646 6.64766 7.12073 6.46263ZM15.4871 0.538641C7.51401 0.538641 1.11896 6.94924 1.0144 14.7878C0.905219 23.0009 7.53746 29.4662 15.4583 29.4681C23.4718 29.4681 29.9545 22.9017 29.9165 15.0101C29.9718 7.08427 23.4749 0.538641 15.4871 0.536333V0.538641ZM26.9014 8.77722C26.1609 9.12689 25.4259 9.48771 24.6889 9.8443C24.4125 9.97779 24.1315 10.1028 23.8609 10.2471C23.7478 10.3071 23.6902 10.2744 23.6233 10.189C23.4657 9.9874 23.3092 9.78468 23.1408 9.59234C23.0559 9.4954 23.1112 9.43193 23.1616 9.35884L24.2553 7.75821C24.2937 7.7009 24.3322 7.64281 24.4006 7.53664C23.995 7.70244 23.6375 7.84823 23.2804 7.99479C22.9671 8.12365 22.653 8.25098 22.342 8.38523C22.2528 8.4237 22.1993 8.4237 22.1332 8.33715C21.9837 8.13789 21.8218 7.94747 21.6565 7.76014C21.5685 7.66051 21.5696 7.58511 21.6527 7.47894C22.3483 6.59419 23.0396 5.70623 23.7267 4.81507C23.8109 4.70544 23.8566 4.69967 23.9316 4.80738C23.9758 4.87008 24.0258 4.92816 24.0746 4.98779C24.4002 5.38554 24.3945 5.38093 24.0727 5.78791C23.724 6.22952 23.3876 6.68074 23.0466 7.1285C23.0246 7.16483 23.0051 7.20262 22.9882 7.2416C23.4111 7.06118 23.8028 6.89539 24.1942 6.72767C24.4702 6.60996 24.7485 6.49687 25.0207 6.36915C25.1141 6.32569 25.1706 6.3353 25.2321 6.41493C25.3728 6.59688 25.512 6.78114 25.6662 6.95117C25.7461 7.03964 25.7273 7.09696 25.6685 7.17928C25.2564 7.75629 24.8481 8.3383 24.4383 8.91839C24.4252 8.93724 24.4133 8.95686 24.3783 9.01033C24.6666 8.87569 24.92 8.75914 25.1718 8.63912C25.5704 8.44947 25.9703 8.26252 26.3635 8.06211C26.4789 8.00402 26.5454 8.01748 26.6184 8.11865C26.7216 8.26577 26.8337 8.40644 26.954 8.53987C27.0632 8.65874 27.0459 8.70875 26.9014 8.77722ZM6.61751 14.9255C6.65249 10.117 10.6279 6.06141 15.639 6.14758C20.2906 6.22759 24.3272 10.0239 24.3272 15.012C24.3272 20.0001 20.2357 23.8918 15.466 23.8499C10.6248 23.8884 6.58137 19.8843 6.61751 14.9255ZM4.34282 7.78052C4.97175 7.04964 5.56647 6.28645 6.22001 5.57519C6.27747 5.51526 6.3407 5.46115 6.40876 5.41362C6.68709 5.21282 6.98541 5.1105 7.29296 5.32861C7.63203 5.56865 7.90805 5.85792 7.81271 6.33146C7.81079 6.35938 7.81079 6.3874 7.81271 6.41532C8.05644 6.31799 8.28018 6.24337 8.53429 6.31068C9.01291 6.43763 9.53728 7.04657 9.10787 7.72321C8.84991 8.13019 8.507 8.46986 8.20676 8.843C7.86077 9.27114 7.49863 9.68467 7.14764 10.1078C7.06845 10.204 7.01924 10.2232 6.90968 10.1293C6.077 9.42116 5.23624 8.72221 4.39779 8.02095C4.31937 7.95478 4.23518 7.90631 4.34282 7.78052ZM15.5298 4.48156C15.5756 4.49271 15.5656 4.44694 15.5683 4.41847C15.8374 3.70759 16.1065 2.99517 16.3786 2.28583C16.5447 1.85461 16.5493 1.85654 17.0041 1.85654C17.164 1.85654 17.3244 1.86038 17.4843 1.85654C17.585 1.85346 17.6169 1.895 17.6169 1.99271C17.6146 3.13289 17.6146 4.27306 17.6169 5.41324C17.6169 5.51672 17.5785 5.54672 17.4804 5.54403C17.314 5.53903 17.1471 5.53441 16.9807 5.54403C16.8427 5.55287 16.8081 5.50017 16.8088 5.36823C16.8142 4.65735 16.8115 3.94493 16.8115 3.23521V3.11981L16.7812 3.11058C16.7362 3.23021 16.6881 3.34907 16.6466 3.46986C16.4298 4.09804 16.2107 4.72582 16.0011 5.35707C15.9554 5.49479 15.89 5.55711 15.7416 5.54249C15.6208 5.52749 15.4985 5.52749 15.3776 5.54249C15.1854 5.57134 15.1085 5.47594 15.0435 5.31476C14.7698 4.6185 14.4872 3.9257 14.2078 3.23213C14.1873 3.17344 14.1529 3.12062 14.1074 3.07826V3.27291C14.1074 3.96532 14.1028 4.65774 14.1109 5.34823C14.1128 5.5021 14.0671 5.54326 13.9164 5.54057C13.4608 5.53479 13.4608 5.54056 13.4608 5.09511C13.4608 4.08303 13.4654 3.07095 13.4566 2.05888C13.4566 1.88462 13.5065 1.83846 13.673 1.84846C13.9037 1.86231 14.1343 1.85808 14.365 1.84846C14.4849 1.84423 14.5514 1.88192 14.5956 1.99733C14.8947 2.79322 15.1988 3.5868 15.501 4.38231C15.501 4.42155 15.4848 4.47117 15.5291 4.48156H15.5298ZM7.27374 9.02072C7.60204 8.62104 7.93727 8.22675 8.26827 7.82822C8.34515 7.73821 8.39705 7.63589 8.38936 7.51356C8.38725 7.42019 8.35822 7.32943 8.30578 7.25217C8.25333 7.17492 8.1797 7.11448 8.09373 7.07811C7.90882 7.00579 7.73852 7.02733 7.6055 7.18351C7.24452 7.60665 6.88854 8.03287 6.52909 8.45524C6.47604 8.51718 6.49295 8.55026 6.54639 8.59411C6.724 8.7399 6.90122 8.88646 7.07499 9.03687C7.1511 9.10496 7.20339 9.10342 7.27297 9.01918L7.27374 9.02072ZM7.11996 6.46301C7.03154 6.27068 6.87546 6.19374 6.61597 6.19105C6.57692 6.19037 6.53821 6.19833 6.50259 6.21435C6.46697 6.23038 6.43532 6.25408 6.40992 6.28376C6.0752 6.6792 5.74203 7.07593 5.41039 7.47394C5.36118 7.53279 5.33735 7.58203 5.42115 7.64627C5.583 7.77091 5.73524 7.90862 5.88939 8.04326C5.96936 8.11365 6.01818 8.12673 6.10045 8.02402C6.39569 7.65435 6.7067 7.29699 7.01309 6.93616C7.1315 6.79499 7.20646 6.64766 7.12073 6.46263L7.11996 6.46301ZM7.11996 6.46301C7.03154 6.27068 6.87546 6.19374 6.61597 6.19105C6.57692 6.19037 6.53821 6.19833 6.50259 6.21435C6.46697 6.23038 6.43532 6.25408 6.40992 6.28376C6.0752 6.6792 5.74203 7.07593 5.41039 7.47394C5.36118 7.53279 5.33735 7.58203 5.42115 7.64627C5.583 7.77091 5.73524 7.90862 5.88939 8.04326C5.96936 8.11365 6.01818 8.12673 6.10045 8.02402C6.39569 7.65435 6.7067 7.29699 7.01309 6.93616C7.1315 6.79499 7.20646 6.64766 7.12073 6.46263L7.11996 6.46301ZM8.38859 7.51433C8.38669 7.42092 8.35785 7.33004 8.30554 7.25265C8.25322 7.17526 8.17967 7.11465 8.09373 7.07811C7.90882 7.00579 7.73852 7.02733 7.6055 7.18351C7.24452 7.60665 6.88854 8.03287 6.52909 8.45524C6.47604 8.51718 6.49295 8.55026 6.54639 8.59411C6.724 8.7399 6.90122 8.88646 7.07499 9.03687C7.15187 9.10458 7.20531 9.10304 7.27489 9.01879C7.6032 8.61912 7.93842 8.22482 8.26942 7.8263C8.34246 7.73744 8.39628 7.63589 8.38859 7.51279V7.51433ZM8.38859 7.51433C8.38669 7.42092 8.35785 7.33004 8.30554 7.25265C8.25322 7.17526 8.17967 7.11465 8.09373 7.07811C7.90882 7.00579 7.73852 7.02733 7.6055 7.18351C7.24452 7.60665 6.88854 8.03287 6.52909 8.45524C6.47604 8.51718 6.49295 8.55026 6.54639 8.59411C6.724 8.7399 6.90122 8.88646 7.07499 9.03687C7.15187 9.10458 7.20531 9.10304 7.27489 9.01879C7.6032 8.61912 7.93842 8.22482 8.26942 7.8263C8.34246 7.73744 8.39628 7.63589 8.38859 7.51279V7.51433ZM7.11996 6.46301C7.03154 6.27068 6.87546 6.19374 6.61597 6.19105C6.57692 6.19037 6.53821 6.19833 6.50259 6.21435C6.46697 6.23038 6.43532 6.25408 6.40992 6.28376C6.0752 6.6792 5.74203 7.07593 5.41039 7.47394C5.36118 7.53279 5.33735 7.58203 5.42115 7.64627C5.583 7.77091 5.73524 7.90862 5.88939 8.04326C5.96936 8.11365 6.01818 8.12673 6.10045 8.02402C6.39569 7.65435 6.7067 7.29699 7.01309 6.93616C7.1315 6.79499 7.20646 6.64766 7.12073 6.46263L7.11996 6.46301ZM30.4666 15.3355C30.4666 15.3248 30.4666 15.3136 30.4666 15.3028C30.4581 15.0897 30.4831 14.8755 30.4539 14.6627V14.6539C30.4385 14.4054 30.4362 14.1561 30.4189 13.9069C30.3488 12.9188 30.1804 11.9402 29.9161 10.9856C29.2821 8.68336 28.1511 6.65497 26.545 4.89662C25.1737 3.39639 23.5675 2.20698 21.7138 1.36031C19.9192 0.539531 17.9804 0.0808441 16.0084 0.0104832C15.0438 -0.0242641 14.078 0.0362948 13.1252 0.19128C9.55734 0.75875 6.31499 2.59832 3.99645 5.37054C2.78942 6.79521 1.86488 8.43707 1.27235 10.2082C0.686861 11.9512 0.418911 13.7407 0.500027 15.5833C0.527908 16.3437 0.611943 17.101 0.751446 17.849C1.03934 19.3597 1.56073 20.8162 2.29687 22.1662C3.23951 23.8975 4.51275 25.4266 6.04432 26.6669C8.44894 28.6223 11.4045 29.7762 14.4972 29.967C14.4997 29.9683 14.5023 29.9695 14.5049 29.9705C14.5599 29.9955 14.6203 29.9805 14.676 29.9828H14.6895H14.9232C15.0631 29.9928 15.205 29.9605 15.3434 30.0024C15.2081 29.9212 15.06 29.9828 14.9205 29.9639H14.5034C14.5009 29.9572 14.4966 29.9512 14.4911 29.9466C14.2869 29.8893 14.0747 29.8893 13.866 29.8662C12.3102 29.6943 10.7903 29.283 9.36005 28.6468C7.4056 27.7736 5.72832 26.523 4.3063 24.9316C3.3176 23.8269 2.5011 22.5792 1.88437 21.2307C1.01209 19.3269 0.592675 17.3231 0.524246 15.2394C0.505024 14.6624 0.550003 14.0853 0.609206 13.5149C0.731642 12.3028 1.00106 11.1101 1.41152 9.96317C2.28264 7.53972 3.69467 5.49133 5.61529 3.78683C6.68024 2.84169 7.87663 2.0562 9.16707 1.45494C10.972 0.608652 12.8722 0.157044 14.8567 0.0593369C15.7202 0.0206316 16.5855 0.06158 17.4416 0.181663C19.2687 0.422561 21.0351 1.00133 22.6507 1.88846C24.5728 2.94594 26.1778 4.365 27.4868 6.11988C28.5495 7.54021 29.3418 9.14409 29.8242 10.8514C30.106 11.8374 30.2879 12.8493 30.367 13.8718C30.387 14.1311 30.3582 14.3965 30.4324 14.6516C30.4377 14.6578 30.4446 14.6625 30.4524 14.665C30.4524 14.8943 30.4524 15.1233 30.4524 15.3521C30.4493 15.7552 30.4139 16.1557 30.3755 16.5569C30.278 17.5551 30.0768 18.5404 29.7754 19.4969C29.2572 21.1625 28.4473 22.7226 27.3834 24.1046C26.6039 25.121 25.6998 26.0353 24.6924 26.8261C23.4963 27.7723 22.1589 28.5241 20.7293 29.0542C19.338 29.5696 17.9041 29.8893 16.4194 29.9662H16.035C15.8939 29.9839 15.7463 29.9216 15.6121 30.0047C15.7513 29.9632 15.8943 29.9947 16.035 29.9851H16.4194C16.6667 29.9938 16.9143 29.9845 17.1602 29.9574C18.8828 29.7737 20.5592 29.286 22.1117 28.5168C23.8978 27.6405 25.4382 26.4376 26.756 24.9474C27.7851 23.7921 28.6241 22.4804 29.2414 21.0614C30.0322 19.2392 30.4946 17.3455 30.4674 15.3486C30.467 15.3444 30.4666 15.3398 30.4666 15.3355Z" fill="white"/>
<path d="M30.4672 15.3485C30.4945 17.3454 30.032 19.2391 29.2412 21.0613C28.6237 22.4789 27.7849 23.7893 26.7563 24.9435C25.4384 26.4337 23.898 27.6362 22.1119 28.5129C20.5595 29.282 18.883 29.7698 17.1604 29.9535C16.9145 29.9806 16.6669 29.9899 16.4196 29.9812C16.4189 29.9874 16.4189 29.9938 16.4196 30C16.41 29.9935 16.4054 29.9873 16.4058 29.9808C16.4059 29.9787 16.4066 29.9767 16.4077 29.975C16.4123 29.9673 16.4169 29.9635 16.4212 29.9635C17.9058 29.8865 19.3398 29.5669 20.731 29.0514C22.1607 28.5214 23.4981 27.7695 24.6942 26.8234C25.7016 26.0326 26.6057 25.1182 27.3852 24.1018C28.449 22.7199 29.2589 21.1597 29.7771 19.4942C30.0786 18.5376 30.2797 17.5523 30.3772 16.5541C30.4157 16.1529 30.4499 15.7524 30.4541 15.3493C30.4555 15.3461 30.4575 15.3433 30.46 15.3409C30.4625 15.3385 30.4655 15.3367 30.4687 15.3354C30.4749 15.3354 30.4814 15.3378 30.488 15.3478L30.4672 15.3485Z" fill="white"/>
<path d="M30.486 14.6559V15.3483H30.4671H30.4521C30.4521 15.1196 30.4521 14.8906 30.4521 14.6613V14.6528C30.4637 14.6559 30.4748 14.6559 30.486 14.6559Z" fill="white"/>
<path d="M15.3432 30.0002H14.9203C14.9098 29.994 14.9052 29.9875 14.9065 29.9805C14.9063 29.9791 14.9063 29.9777 14.9065 29.9763C14.9103 29.9679 14.9141 29.9636 14.918 29.9636C15.0598 29.9805 15.2094 29.919 15.3432 30.0002Z" fill="white"/>
<path d="M16.0488 29.9802C16.0494 29.9815 16.0497 29.9829 16.0497 29.9843C16.0497 29.9857 16.0494 29.9871 16.0488 29.9883C16.0445 29.996 16.0403 29.9999 16.0362 29.9999H15.6133C15.7486 29.9183 15.8962 29.9806 16.0362 29.9614C16.0396 29.9633 16.0425 29.9661 16.0447 29.9693C16.0469 29.9726 16.0483 29.9763 16.0488 29.9802Z" fill="white"/>
<path d="M16.4211 29.9633C16.4207 29.9692 16.4207 29.9751 16.4211 29.981C16.4203 29.9872 16.4203 29.9936 16.4211 29.9998H16.0366C16.0366 29.9933 16.0366 29.9867 16.0366 29.9802V29.9629L16.4211 29.9633Z" fill="white"/>
<path d="M14.9205 29.9998H14.6898C14.6793 29.9934 14.6747 29.9865 14.676 29.979C14.6758 29.9779 14.6758 29.9767 14.676 29.9756C14.6798 29.9671 14.6841 29.9629 14.6879 29.9629H14.9186V29.9798C14.9201 29.9867 14.9205 29.9933 14.9205 29.9998Z" fill="white"/>
<path d="M14.6898 29.9999H14.4976C14.4976 29.9876 14.4976 29.9757 14.4976 29.9614H14.6898C14.6898 29.9668 14.6898 29.9726 14.6898 29.9784C14.6902 29.9855 14.6902 29.9927 14.6898 29.9999Z" fill="white"/>
<path d="M15.5383 15.0005H15.5342V15.0045H15.5383V15.0005Z" fill="white"/>
<path d="M15.534 15.0023C12.8138 15.0023 10.0938 15.0038 7.37403 15.0069C7.21564 15.0069 7.18527 14.955 7.18873 14.8084C7.23563 12.8404 7.89839 11.1094 9.17702 9.6153C10.4841 8.0893 12.1468 7.18108 14.1154 6.82141C14.5241 6.74678 14.9408 6.74447 15.3529 6.69793C15.5367 6.67792 15.5409 6.77486 15.5405 6.9145C15.5377 9.06688 15.5369 11.2193 15.5382 13.3716C15.5382 13.9133 15.5355 14.4568 15.534 15.0023Z" fill="white"/>
<path d="M15.5317 23.1136C15.5374 20.4099 15.539 17.7064 15.5367 15.0032C18.2193 15.0032 20.9019 15.0016 23.5845 14.9985C23.7336 14.9985 23.7667 15.0466 23.7625 15.1855C23.724 16.5526 23.3834 17.8359 22.7176 19.0322C22.3089 19.7735 21.7876 20.4467 21.1725 21.0279C20.0031 22.1296 18.6341 22.8497 17.0549 23.1575C16.6208 23.2425 16.1807 23.259 15.7436 23.3075C15.5917 23.3229 15.5314 23.2844 15.5317 23.1136Z" fill="white"/>
<path d="M7.12085 6.46243C7.03243 6.27009 6.87635 6.19316 6.61686 6.19046C6.57781 6.18979 6.53909 6.19774 6.50347 6.21377C6.46785 6.22979 6.43621 6.25349 6.4108 6.28317C6.07609 6.67862 5.74291 7.07534 5.41127 7.47335C5.36207 7.53221 5.33823 7.58145 5.42204 7.64569C5.58388 7.77032 5.73612 7.90804 5.89028 8.04267C5.97024 8.11307 6.01906 8.12615 6.10133 8.02344C6.39658 7.65377 6.70758 7.2964 7.01397 6.93558C7.13161 6.79479 7.20658 6.64746 7.12085 6.46243ZM8.38948 7.51374C8.38744 7.42031 8.35845 7.32946 8.30599 7.25213C8.25354 7.17481 8.17987 7.1143 8.09385 7.07791C7.90894 7.00559 7.73863 7.02713 7.60562 7.18331C7.24463 7.60645 6.88865 8.03267 6.5292 8.45504C6.47615 8.51698 6.49307 8.55006 6.5465 8.59391C6.72411 8.7397 6.90134 8.88626 7.0751 9.03667C7.15199 9.10437 7.20542 9.10283 7.27501 9.01859C7.60331 8.61891 7.93854 8.22462 8.26953 7.8261C8.34258 7.73724 8.3964 7.63569 8.38871 7.51259L8.38948 7.51374ZM8.38948 7.51374C8.38744 7.42031 8.35845 7.32946 8.30599 7.25213C8.25354 7.17481 8.17987 7.1143 8.09385 7.07791C7.90894 7.00559 7.73863 7.02713 7.60562 7.18331C7.24463 7.60645 6.88865 8.03267 6.5292 8.45504C6.47615 8.51698 6.49307 8.55006 6.5465 8.59391C6.72411 8.7397 6.90134 8.88626 7.0751 9.03667C7.15199 9.10437 7.20542 9.10283 7.27501 9.01859C7.60331 8.61891 7.93854 8.22462 8.26953 7.8261C8.34258 7.73724 8.3964 7.63569 8.38871 7.51259L8.38948 7.51374ZM7.12085 6.46243C7.03243 6.27009 6.87635 6.19316 6.61686 6.19046C6.57781 6.18979 6.53909 6.19774 6.50347 6.21377C6.46785 6.22979 6.43621 6.25349 6.4108 6.28317C6.07609 6.67862 5.74291 7.07534 5.41127 7.47335C5.36207 7.53221 5.33823 7.58145 5.42204 7.64569C5.58388 7.77032 5.73612 7.90804 5.89028 8.04267C5.97024 8.11307 6.01906 8.12615 6.10133 8.02344C6.39658 7.65377 6.70758 7.2964 7.01397 6.93558C7.13161 6.79479 7.20658 6.64746 7.12085 6.46243ZM15.4873 0.538441C7.51412 0.538441 1.11908 6.94904 1.01451 14.7876C0.905334 23.0007 7.53757 29.466 15.4584 29.4679C23.4719 29.4679 29.9546 22.9015 29.9166 15.0099C29.9719 7.08406 23.475 0.538441 15.4873 0.536133V0.538441ZM26.9015 8.77702C26.161 9.12669 25.426 9.48751 24.6891 9.8441C24.4126 9.97758 24.1316 10.1026 23.861 10.2469C23.748 10.3069 23.6903 10.2742 23.6234 10.1888C23.4658 9.9872 23.3093 9.78448 23.1409 9.59214C23.056 9.4952 23.1113 9.43173 23.1617 9.35864L24.2554 7.75801C24.2939 7.7007 24.3323 7.64261 24.4007 7.53644C23.9952 7.70223 23.6376 7.84803 23.2805 7.99459C22.9672 8.12345 22.6531 8.25078 22.3421 8.38503C22.2529 8.4235 22.1995 8.4235 22.1333 8.33695C21.9838 8.13769 21.822 7.94727 21.6566 7.75994C21.5686 7.66031 21.5698 7.58491 21.6528 7.47874C22.3484 6.59399 23.0397 5.70603 23.7268 4.81487C23.811 4.70524 23.8568 4.69947 23.9317 4.80717C23.9759 4.86988 24.0259 4.92796 24.0747 4.98759C24.4003 5.38534 24.3946 5.38072 24.0728 5.78771C23.7241 6.22932 23.3877 6.68054 23.0468 7.1283C23.0247 7.16463 23.0052 7.20241 22.9883 7.24139C23.4112 7.06098 23.8029 6.89519 24.1943 6.72747C24.4703 6.60976 24.7486 6.49667 25.0208 6.36895C25.1142 6.32549 25.1707 6.3351 25.2323 6.41473C25.373 6.59668 25.5121 6.78094 25.6663 6.95097C25.7462 7.03944 25.7274 7.09676 25.6686 7.17908C25.2565 7.75609 24.8482 8.3381 24.4384 8.91819C24.4253 8.93704 24.4134 8.95666 24.3784 9.01013C24.6668 8.87549 24.9201 8.75894 25.1719 8.63892C25.5706 8.44927 25.9704 8.26232 26.3636 8.06191C26.479 8.00382 26.5455 8.01728 26.6185 8.11845C26.7217 8.26557 26.8338 8.40624 26.9541 8.53967C27.0633 8.65854 27.046 8.70854 26.9015 8.77702ZM6.61762 14.9253C6.65261 10.1168 10.628 6.06121 15.6391 6.14738C20.2908 6.22739 24.3273 10.0237 24.3273 15.0118C24.3273 19.9999 20.2358 23.8916 15.4661 23.8497C10.625 23.8882 6.58149 19.8841 6.61762 14.9253ZM4.34293 7.78032C4.97187 7.04944 5.56658 6.28625 6.22012 5.57498C6.27759 5.51506 6.34081 5.46095 6.40888 5.41342C6.68721 5.21262 6.98553 5.1103 7.29307 5.32841C7.63214 5.56845 7.90817 5.85772 7.81283 6.33125C7.8109 6.35917 7.8109 6.38719 7.81283 6.41511C8.05656 6.31779 8.2803 6.24316 8.53441 6.31048C9.01303 6.43743 9.53739 7.04637 9.10798 7.72301C8.85003 8.12999 8.50711 8.46966 8.20687 8.8428C7.86088 9.27094 7.49874 9.68446 7.14776 10.1076C7.06856 10.2038 7.01936 10.223 6.90979 10.1291C6.07711 9.42096 5.23636 8.72201 4.39791 8.02075C4.31948 7.95458 4.23529 7.90611 4.34293 7.78032ZM15.5299 4.48135C15.5757 4.49251 15.5657 4.44673 15.5684 4.41827C15.8375 3.70739 16.1066 2.99497 16.3788 2.28563C16.5448 1.85441 16.5495 1.85634 17.0042 1.85634C17.1642 1.85634 17.3245 1.86018 17.4844 1.85634C17.5851 1.85326 17.617 1.8948 17.617 1.99251C17.6147 3.13269 17.6147 4.27286 17.617 5.41304C17.617 5.51651 17.5786 5.54652 17.4805 5.54383C17.3141 5.53883 17.1472 5.53421 16.9808 5.54383C16.8428 5.55267 16.8082 5.49997 16.8089 5.36803C16.8143 4.65715 16.8116 3.94473 16.8116 3.23501V3.11961L16.7813 3.11037C16.7363 3.23001 16.6882 3.34887 16.6467 3.46966C16.4299 4.09783 16.2108 4.72562 16.0013 5.35687C15.9555 5.49459 15.8901 5.55691 15.7418 5.54229C15.6209 5.52728 15.4986 5.52728 15.3777 5.54229C15.1855 5.57114 15.1086 5.47574 15.0436 5.31456C14.7699 4.6183 14.4874 3.9255 14.2079 3.23193C14.1874 3.17324 14.153 3.12042 14.1075 3.07806V3.27271C14.1075 3.96512 14.1029 4.65754 14.111 5.34803C14.1129 5.5019 14.0672 5.54306 13.9165 5.54036C13.4609 5.53459 13.4609 5.54036 13.4609 5.09491C13.4609 4.08283 13.4655 3.07075 13.4567 2.05867C13.4567 1.88442 13.5067 1.83826 13.6731 1.84826C13.9038 1.86211 14.1344 1.85787 14.3651 1.84826C14.485 1.84403 14.5516 1.88172 14.5958 1.99713C14.8949 2.79302 15.1989 3.5866 15.5011 4.38211C15.5011 4.42135 15.485 4.47097 15.5292 4.48135H15.5299ZM7.27385 9.02051C7.60216 8.62084 7.93738 8.22655 8.26838 7.82802C8.34527 7.73801 8.39716 7.63569 8.38948 7.51336C8.38736 7.41999 8.35834 7.32923 8.30589 7.25197C8.25345 7.17472 8.17981 7.11428 8.09385 7.07791C7.90894 7.00559 7.73863 7.02713 7.60562 7.18331C7.24463 7.60645 6.88865 8.03267 6.5292 8.45504C6.47615 8.51698 6.49307 8.55006 6.5465 8.59391C6.72411 8.7397 6.90134 8.88626 7.0751 9.03667C7.15122 9.10476 7.2035 9.10322 7.27308 9.01898L7.27385 9.02051ZM7.12008 6.46281C7.03166 6.27048 6.87558 6.19354 6.61609 6.19085C6.57704 6.19017 6.53832 6.19813 6.5027 6.21415C6.46708 6.23018 6.43544 6.25388 6.41003 6.28356C6.07532 6.679 5.74214 7.07573 5.4105 7.47374C5.3613 7.53259 5.33746 7.58183 5.42127 7.64607C5.58312 7.77071 5.73535 7.90842 5.88951 8.04306C5.96947 8.11345 6.01829 8.12653 6.10056 8.02382C6.39581 7.65415 6.70681 7.29679 7.01321 6.93596C7.13161 6.79479 7.20658 6.64746 7.12085 6.46243L7.12008 6.46281ZM7.12008 6.46281C7.03166 6.27048 6.87558 6.19354 6.61609 6.19085C6.57704 6.19017 6.53832 6.19813 6.5027 6.21415C6.46708 6.23018 6.43544 6.25388 6.41003 6.28356C6.07532 6.679 5.74214 7.07573 5.4105 7.47374C5.3613 7.53259 5.33746 7.58183 5.42127 7.64607C5.58312 7.77071 5.73535 7.90842 5.88951 8.04306C5.96947 8.11345 6.01829 8.12653 6.10056 8.02382C6.39581 7.65415 6.70681 7.29679 7.01321 6.93596C7.13161 6.79479 7.20658 6.64746 7.12085 6.46243L7.12008 6.46281ZM8.38871 7.51413C8.38681 7.42072 8.35796 7.32984 8.30565 7.25245C8.25334 7.17506 8.17978 7.11445 8.09385 7.07791C7.90894 7.00559 7.73863 7.02713 7.60562 7.18331C7.24463 7.60645 6.88865 8.03267 6.5292 8.45504C6.47615 8.51698 6.49307 8.55006 6.5465 8.59391C6.72411 8.7397 6.90134 8.88626 7.0751 9.03667C7.15199 9.10437 7.20542 9.10283 7.27501 9.01859C7.60331 8.61891 7.93854 8.22462 8.26953 7.8261C8.34258 7.73724 8.3964 7.63569 8.38871 7.51259V7.51413ZM8.38871 7.51413C8.38681 7.42072 8.35796 7.32984 8.30565 7.25245C8.25334 7.17506 8.17978 7.11445 8.09385 7.07791C7.90894 7.00559 7.73863 7.02713 7.60562 7.18331C7.24463 7.60645 6.88865 8.03267 6.5292 8.45504C6.47615 8.51698 6.49307 8.55006 6.5465 8.59391C6.72411 8.7397 6.90134 8.88626 7.0751 9.03667C7.15199 9.10437 7.20542 9.10283 7.27501 9.01859C7.60331 8.61891 7.93854 8.22462 8.26953 7.8261C8.34258 7.73724 8.3964 7.63569 8.38871 7.51259V7.51413ZM7.12008 6.46281C7.03166 6.27048 6.87558 6.19354 6.61609 6.19085C6.57704 6.19017 6.53832 6.19813 6.5027 6.21415C6.46708 6.23018 6.43544 6.25388 6.41003 6.28356C6.07532 6.679 5.74214 7.07573 5.4105 7.47374C5.3613 7.53259 5.33746 7.58183 5.42127 7.64607C5.58312 7.77071 5.73535 7.90842 5.88951 8.04306C5.96947 8.11345 6.01829 8.12653 6.10056 8.02382C6.39581 7.65415 6.70681 7.29679 7.01321 6.93596C7.13161 6.79479 7.20658 6.64746 7.12085 6.46243L7.12008 6.46281Z" fill="white"/>
<path d="M15.5383 15.0005H15.5342V15.0045H15.5383V15.0005Z" fill="white"/>
<path d="M15.5382 13.3697C15.5382 13.9132 15.5355 14.4568 15.534 15.0003C12.8138 15.0003 10.0938 15.0019 7.37403 15.0049C7.21564 15.0049 7.18527 14.953 7.18873 14.8065C7.23563 12.8385 7.89839 11.1074 9.17702 9.61335C10.4841 8.08734 12.1468 7.17912 14.1154 6.81945C14.5241 6.74483 14.9408 6.74252 15.3529 6.69597C15.5367 6.67597 15.5409 6.77291 15.5405 6.91255C15.538 9.06493 15.5372 11.2173 15.5382 13.3697Z" fill="white"/>
<path d="M15.5366 15.0022C18.2191 15.0022 20.9017 15.0006 23.5843 14.9976C23.7334 14.9976 23.7665 15.0456 23.7623 15.1845C23.7238 16.5516 23.3832 17.8349 22.7174 19.0313C22.3087 19.7725 21.7875 20.4457 21.1723 21.0269C20.0029 22.1294 18.6339 22.8495 17.0547 23.1573C16.6207 23.2423 16.1805 23.2588 15.7434 23.3073C15.5927 23.3238 15.5323 23.2854 15.5327 23.115C15.5376 20.4102 15.5389 17.7059 15.5366 15.0022Z" fill="white"/>
<path d="M7.12068 6.46254C7.03226 6.27021 6.87618 6.19327 6.61669 6.19058C6.57764 6.1899 6.53892 6.19786 6.5033 6.21388C6.46768 6.22991 6.43604 6.25361 6.41063 6.28329C6.07592 6.67873 5.74274 7.07546 5.41111 7.47347C5.3619 7.53232 5.33806 7.58156 5.42187 7.6458C5.58372 7.77044 5.73595 7.90815 5.89011 8.04279C5.97007 8.11318 6.01889 8.12626 6.10116 8.02355C6.39641 7.65388 6.70741 7.29652 7.01381 6.93569C7.13144 6.7949 7.20641 6.64757 7.12068 6.46254ZM8.38931 7.51386C8.38727 7.42043 8.35828 7.32958 8.30583 7.25225C8.25338 7.17492 8.1797 7.11442 8.09368 7.07802C7.90877 7.0057 7.73846 7.02725 7.60545 7.18342C7.24447 7.60657 6.88848 8.03279 6.52904 8.45516C6.47599 8.51709 6.4929 8.55017 6.54634 8.59403C6.72394 8.73982 6.90117 8.88638 7.07493 9.03679C7.15182 9.10449 7.20526 9.10295 7.27484 9.01871C7.60314 8.61903 7.93837 8.22474 8.26937 7.82622C8.34241 7.73736 8.39623 7.6358 8.38854 7.51271L8.38931 7.51386ZM8.38931 7.51386C8.38727 7.42043 8.35828 7.32958 8.30583 7.25225C8.25338 7.17492 8.1797 7.11442 8.09368 7.07802C7.90877 7.0057 7.73846 7.02725 7.60545 7.18342C7.24447 7.60657 6.88848 8.03279 6.52904 8.45516C6.47599 8.51709 6.4929 8.55017 6.54634 8.59403C6.72394 8.73982 6.90117 8.88638 7.07493 9.03679C7.15182 9.10449 7.20526 9.10295 7.27484 9.01871C7.60314 8.61903 7.93837 8.22474 8.26937 7.82622C8.34241 7.73736 8.39623 7.6358 8.38854 7.51271L8.38931 7.51386ZM7.12068 6.46254C7.03226 6.27021 6.87618 6.19327 6.61669 6.19058C6.57764 6.1899 6.53892 6.19786 6.5033 6.21388C6.46768 6.22991 6.43604 6.25361 6.41063 6.28329C6.07592 6.67873 5.74274 7.07546 5.41111 7.47347C5.3619 7.53232 5.33806 7.58156 5.42187 7.6458C5.58372 7.77044 5.73595 7.90815 5.89011 8.04279C5.97007 8.11318 6.01889 8.12626 6.10116 8.02355C6.39641 7.65388 6.70741 7.29652 7.01381 6.93569C7.13144 6.7949 7.20641 6.64757 7.12068 6.46254ZM15.4833 1.12134C7.81497 1.12095 1.68749 7.25844 1.60061 14.8196C1.50834 22.6931 7.83419 28.8806 15.4667 28.8837C23.1765 28.8868 29.3682 22.6035 29.3359 15.0023C29.3678 7.41115 23.1927 1.12172 15.4833 1.12134ZM13.6718 1.85299C13.9025 1.86684 14.1331 1.86261 14.3638 1.85299C14.4837 1.84876 14.5502 1.88646 14.5944 2.00186C14.8935 2.79775 15.1976 3.59133 15.4998 4.38684C15.5025 4.42146 15.4863 4.47108 15.5305 4.48147C15.5747 4.49186 15.5663 4.44685 15.569 4.41838C15.8381 3.7075 16.1072 2.99509 16.3794 2.28575C16.5454 1.85453 16.5501 1.85645 17.0048 1.85645C17.1648 1.85645 17.3251 1.8603 17.485 1.85645C17.5857 1.85337 17.6176 1.89492 17.6176 1.99263C17.6153 3.1328 17.6153 4.27298 17.6176 5.41315C17.6176 5.51663 17.5792 5.54663 17.4811 5.54394C17.3147 5.53894 17.1478 5.53432 16.9814 5.54394C16.8434 5.55279 16.8088 5.50009 16.8095 5.36814C16.8149 4.65727 16.8122 3.94485 16.8122 3.23512V3.11972L16.7819 3.11049C16.7369 3.23012 16.6888 3.34899 16.6473 3.46978C16.4305 4.09795 16.2114 4.72574 16.0019 5.35699C15.9561 5.4947 15.8907 5.55702 15.7424 5.5424C15.6215 5.5274 15.4992 5.5274 15.3783 5.5424C15.1861 5.57125 15.1092 5.47585 15.0442 5.31468C14.7705 4.61841 14.488 3.92562 14.2085 3.23205C14.188 3.17335 14.1536 3.12054 14.1081 3.07818V3.27282C14.1081 3.96524 14.1035 4.65765 14.1116 5.34814C14.1135 5.50201 14.0678 5.54317 13.9171 5.54048C13.4615 5.53471 13.4615 5.54048 13.4615 5.09503C13.4615 4.08295 13.4661 3.07087 13.4573 2.05879C13.4542 1.88915 13.5057 1.84299 13.6718 1.85299ZM4.39851 8.02086C4.31932 7.9547 4.23513 7.90546 4.34277 7.78044C4.9717 7.04956 5.56642 6.28636 6.21995 5.5751C6.27742 5.51518 6.34064 5.46106 6.40871 5.41354C6.68704 5.21274 6.98536 5.11041 7.29291 5.32852C7.63198 5.56856 7.908 5.85784 7.81266 6.33137C7.81074 6.35929 7.81074 6.38731 7.81266 6.41523C8.05639 6.31791 8.28013 6.24328 8.53424 6.3106C9.01286 6.43754 9.53723 7.04648 9.10781 7.72312C8.84986 8.13011 8.50694 8.46978 8.2067 8.84291C7.86071 9.27105 7.49858 9.68458 7.14759 10.1077C7.0684 10.2039 7.01919 10.2231 6.90963 10.1293C6.07771 9.42108 5.23696 8.72212 4.39851 8.02086ZM15.466 23.8498C10.6248 23.8883 6.58132 19.8838 6.61746 14.9254C6.65244 10.117 10.6279 6.06133 15.6389 6.1475C20.2906 6.22751 24.3271 10.0239 24.3271 15.0119C24.3271 20 20.2356 23.8918 15.466 23.8498ZM26.9013 8.77713C26.1609 9.1268 25.4258 9.48763 24.6889 9.84422C24.4125 9.9777 24.1315 10.1027 23.8608 10.247C23.7478 10.307 23.6901 10.2743 23.6232 10.1889C23.4656 9.98732 23.3092 9.78459 23.1408 9.59226C23.0558 9.49532 23.1112 9.43185 23.1615 9.35876L24.2552 7.75813C24.2937 7.70081 24.3321 7.64273 24.4006 7.53656C23.995 7.70235 23.6375 7.84814 23.2803 7.9947C22.967 8.12357 22.6529 8.2509 22.3419 8.38515C22.2527 8.42361 22.1993 8.42361 22.1332 8.33706C21.9836 8.1378 21.8218 7.94739 21.6565 7.76005C21.5684 7.66042 21.5696 7.58502 21.6526 7.47885C22.3482 6.5941 23.0395 5.70615 23.7266 4.81498C23.8108 4.70535 23.8566 4.69958 23.9316 4.80729C23.9758 4.86999 24.0257 4.92808 24.0746 4.9877C24.4002 5.38546 24.3944 5.38084 24.0726 5.78783C23.724 6.22943 23.3876 6.68065 23.0466 7.12842C23.0246 7.16474 23.005 7.20253 22.9882 7.24151C23.411 7.0611 23.8028 6.8953 24.1941 6.72759C24.4701 6.60987 24.7485 6.49678 25.0207 6.36907C25.1141 6.3256 25.1706 6.33522 25.2321 6.41484C25.3728 6.5968 25.512 6.78105 25.6661 6.95108C25.7461 7.03956 25.7272 7.09687 25.6684 7.17919C25.2563 7.75621 24.848 8.33822 24.4382 8.91831C24.4252 8.93716 24.4132 8.95677 24.3783 9.01024C24.6666 8.87561 24.9199 8.75905 25.1717 8.63903C25.5704 8.44939 25.9702 8.26244 26.3635 8.06202C26.4788 8.00394 26.5453 8.0174 26.6184 8.11857C26.7215 8.26569 26.8336 8.40636 26.954 8.53979C27.0631 8.65865 27.0458 8.70866 26.9013 8.77713ZM7.27292 9.01909C7.60122 8.61941 7.93645 8.22512 8.26744 7.8266C8.34433 7.73659 8.39623 7.63426 8.38854 7.51194C8.3862 7.41892 8.35715 7.32854 8.30487 7.2516C8.25258 7.17466 8.17927 7.1144 8.09368 7.07802C7.90877 7.0057 7.73846 7.02725 7.60545 7.18342C7.24447 7.60657 6.88848 8.03279 6.52904 8.45516C6.47599 8.51709 6.4929 8.55017 6.54634 8.59403C6.72394 8.73982 6.90117 8.88638 7.07493 9.03679C7.15105 9.10487 7.20333 9.10334 7.27292 9.01909ZM7.11914 6.46139C7.03072 6.26905 6.87464 6.19212 6.61515 6.18942C6.5761 6.18875 6.53738 6.1967 6.50177 6.21273C6.46615 6.22876 6.4345 6.25245 6.40909 6.28213C6.07438 6.67758 5.74121 7.07431 5.40957 7.47231C5.36036 7.53117 5.33653 7.58041 5.42033 7.64465C5.58218 7.76928 5.73441 7.907 5.88857 8.04163C5.96853 8.11203 6.01736 8.12511 6.09963 8.0224C6.39487 7.65273 6.70588 7.29536 7.01227 6.93454C7.13144 6.7949 7.20641 6.64757 7.12068 6.46254L7.11914 6.46139ZM7.11914 6.46139C7.03072 6.26905 6.87464 6.19212 6.61515 6.18942C6.5761 6.18875 6.53738 6.1967 6.50177 6.21273C6.46615 6.22876 6.4345 6.25245 6.40909 6.28213C6.07438 6.67758 5.74121 7.07431 5.40957 7.47231C5.36036 7.53117 5.33653 7.58041 5.42033 7.64465C5.58218 7.76928 5.73441 7.907 5.88857 8.04163C5.96853 8.11203 6.01736 8.12511 6.09963 8.0224C6.39487 7.65273 6.70588 7.29536 7.01227 6.93454C7.13144 6.7949 7.20641 6.64757 7.12068 6.46254L7.11914 6.46139ZM8.38777 7.51271C8.38564 7.41964 8.35678 7.32916 8.30462 7.25208C8.25247 7.17499 8.17924 7.11457 8.09368 7.07802C7.90877 7.0057 7.73846 7.02725 7.60545 7.18342C7.24447 7.60657 6.88848 8.03279 6.52904 8.45516C6.47599 8.51709 6.4929 8.55017 6.54634 8.59403C6.72394 8.73982 6.90117 8.88638 7.07493 9.03679C7.15182 9.10449 7.20526 9.10295 7.27484 9.01871C7.60314 8.61903 7.93837 8.22474 8.26937 7.82622C8.34241 7.73736 8.39623 7.6358 8.38854 7.51271H8.38777ZM8.38777 7.51271C8.38564 7.41964 8.35678 7.32916 8.30462 7.25208C8.25247 7.17499 8.17924 7.11457 8.09368 7.07802C7.90877 7.0057 7.73846 7.02725 7.60545 7.18342C7.24447 7.60657 6.88848 8.03279 6.52904 8.45516C6.47599 8.51709 6.4929 8.55017 6.54634 8.59403C6.72394 8.73982 6.90117 8.88638 7.07493 9.03679C7.15182 9.10449 7.20526 9.10295 7.27484 9.01871C7.60314 8.61903 7.93837 8.22474 8.26937 7.82622C8.34241 7.73736 8.39623 7.6358 8.38854 7.51271H8.38777ZM7.11914 6.46139C7.03072 6.26905 6.87464 6.19212 6.61515 6.18942C6.5761 6.18875 6.53738 6.1967 6.50177 6.21273C6.46615 6.22876 6.4345 6.25245 6.40909 6.28213C6.07438 6.67758 5.74121 7.07431 5.40957 7.47231C5.36036 7.53117 5.33653 7.58041 5.42033 7.64465C5.58218 7.76928 5.73441 7.907 5.88857 8.04163C5.96853 8.11203 6.01736 8.12511 6.09963 8.0224C6.39487 7.65273 6.70588 7.29536 7.01227 6.93454C7.13144 6.7949 7.20641 6.64757 7.12068 6.46254L7.11914 6.46139Z" fill="white"/>
<path d="M15.5383 15.0005H15.5342V15.0045H15.5383V15.0005Z" fill="white"/>
<path d="M15.5382 13.3697C15.5382 13.9132 15.5355 14.4568 15.534 15.0003C12.8138 15.0003 10.0938 15.0019 7.37403 15.0049C7.21564 15.0049 7.18527 14.953 7.18873 14.8065C7.23563 12.8385 7.89839 11.1074 9.17702 9.61335C10.4841 8.08734 12.1468 7.17912 14.1154 6.81945C14.5241 6.74483 14.9408 6.74252 15.3529 6.69597C15.5367 6.67597 15.5409 6.77291 15.5405 6.91255C15.538 9.06493 15.5372 11.2173 15.5382 13.3697Z" fill="white"/>
<path d="M23.7623 15.1855C23.7238 16.5526 23.3832 17.8359 22.7174 19.0322C22.3087 19.7734 21.7875 20.4467 21.1723 21.0279C20.0029 22.1296 18.6339 22.8497 17.0547 23.1575C16.6207 23.2425 16.1805 23.259 15.7434 23.3075C15.5927 23.324 15.5323 23.2856 15.5327 23.1151C15.5384 20.4114 15.54 17.7079 15.5377 15.0047C18.2203 15.0047 20.9029 15.0031 23.5854 15.0001C23.7334 14.9981 23.7665 15.0466 23.7623 15.1855Z" fill="white"/>
<path d="M15.5291 4.48135C15.4849 4.47096 15.501 4.42134 15.4983 4.38672C15.5175 4.4048 15.5221 4.45481 15.5667 4.41826C15.5648 4.44673 15.5748 4.4925 15.5291 4.48135Z" fill="white"/>
<path d="M7.01304 6.93461C6.70549 7.29543 6.39564 7.6528 6.1004 8.02247C6.01813 8.12518 5.96931 8.1121 5.88934 8.0417C5.73557 7.90707 5.5818 7.76935 5.4211 7.64472C5.3373 7.58048 5.36113 7.53124 5.41034 7.47238C5.74352 7.07489 6.07669 6.67816 6.40987 6.2822C6.43527 6.25252 6.46692 6.22882 6.50254 6.2128C6.53816 6.19677 6.57687 6.18881 6.61592 6.18949C6.87541 6.19257 7.03149 6.27028 7.11991 6.46146C7.20833 6.65264 7.13145 6.79497 7.01304 6.93461Z" fill="white"/>
<path d="M8.26774 7.82745C7.93675 8.22521 7.60152 8.6195 7.27321 9.01994C7.20363 9.10419 7.15135 9.10573 7.07331 9.03802C6.89955 8.88762 6.72232 8.74106 6.54471 8.59526C6.49128 8.55141 6.47436 8.51833 6.52741 8.4564C6.88878 8.03325 7.24477 7.60704 7.60383 7.18466C7.73684 7.02848 7.90714 7.00694 8.09206 7.07926C8.1777 7.11567 8.25105 7.17598 8.30334 7.253C8.35564 7.33002 8.38465 7.42048 8.38692 7.51356C8.39653 7.63589 8.34271 7.73744 8.26774 7.82745Z" fill="white"/>
<path d="M15.5291 4.48135C15.4849 4.47096 15.501 4.42134 15.4983 4.38672L15.5667 4.41826C15.5648 4.44673 15.5748 4.4925 15.5291 4.48135Z" fill="white"/>
<path d="M15.5342 15.0045V15.0005H15.5383L15.5342 15.0045Z" fill="white"/>
<path d="M15.5382 13.3697C15.5382 13.9132 15.5355 14.4568 15.534 15.0003C12.8138 15.0003 10.0938 15.0019 7.37403 15.0049C7.21564 15.0049 7.18527 14.953 7.18873 14.8065C7.23563 12.8385 7.89839 11.1074 9.17702 9.61335C10.4841 8.08734 12.1468 7.17912 14.1154 6.81945C14.5241 6.74483 14.9408 6.74252 15.3529 6.69597C15.5367 6.67597 15.5409 6.77291 15.5405 6.91255C15.538 9.06493 15.5372 11.2173 15.5382 13.3697Z" fill="white"/>
<path d="M15.5383 15.0005V15.0045H15.5342L15.5383 15.0005Z" fill="white"/>
<path d="M23.7623 15.1855C23.7238 16.5526 23.3832 17.8359 22.7174 19.0322C22.3087 19.7734 21.7875 20.4467 21.1723 21.0279C20.0029 22.1296 18.6339 22.8497 17.0547 23.1575C16.6207 23.2425 16.1805 23.259 15.7434 23.3075C15.5927 23.324 15.5323 23.2856 15.5327 23.1151C15.5384 20.4114 15.54 17.7079 15.5377 15.0047C18.2203 15.0047 20.9029 15.0031 23.5854 15.0001C23.7334 14.9981 23.7665 15.0466 23.7623 15.1855Z" fill="white"/>
<path d="M8.26774 7.82745C7.93675 8.22521 7.60152 8.6195 7.27321 9.01994C7.20363 9.10419 7.15135 9.10573 7.07331 9.03802C6.89955 8.88762 6.72232 8.74106 6.54471 8.59526C6.49128 8.55141 6.47436 8.51833 6.52741 8.4564C6.88878 8.03325 7.24477 7.60704 7.60383 7.18466C7.73684 7.02848 7.90714 7.00694 8.09206 7.07926C8.1777 7.11567 8.25105 7.17598 8.30334 7.253C8.35564 7.33002 8.38465 7.42048 8.38692 7.51356C8.39653 7.63589 8.34271 7.73744 8.26774 7.82745Z" fill="white"/>
<path d="M7.01304 6.93461C6.70549 7.29543 6.39564 7.6528 6.1004 8.02247C6.01813 8.12518 5.96931 8.1121 5.88934 8.0417C5.73557 7.90707 5.5818 7.76935 5.4211 7.64472C5.3373 7.58048 5.36113 7.53124 5.41034 7.47238C5.74352 7.07489 6.07669 6.67816 6.40987 6.2822C6.43527 6.25252 6.46692 6.22882 6.50254 6.2128C6.53816 6.19677 6.57687 6.18881 6.61592 6.18949C6.87541 6.19257 7.03149 6.27028 7.11991 6.46146C7.20833 6.65264 7.13145 6.79497 7.01304 6.93461Z" fill="white"/>
</g>
<defs>
<clipPath id="clip0_2401_3411">
<rect width="30" height="30" fill="white" transform="translate(0.48584)"/>
</clipPath>
</defs>
</svg>
