<svg width="17" height="17" viewBox="0 0 17 17" fill="none" xmlns="http://www.w3.org/2000/svg">
<path d="M16.3252 11.0293C16.3252 9.875 16.0791 8.8584 15.5869 7.97949C15.0947 7.10059 14.3916 6.41504 13.4775 5.92285C12.5693 5.4248 11.4883 5.17578 10.2344 5.17578H5.46191L2.36816 5.31641L2.77246 5.92285L4.88184 4.18262L6.65723 2.44238C6.76855 2.33691 6.85645 2.21973 6.9209 2.09082C6.98535 1.96191 7.01758 1.80957 7.01758 1.63379C7.01758 1.32324 6.91504 1.06543 6.70996 0.860352C6.51074 0.649414 6.24414 0.543945 5.91016 0.543945C5.59961 0.543945 5.32715 0.661133 5.09277 0.895508L0.460938 5.47461C0.349609 5.58594 0.264648 5.71484 0.206055 5.86133C0.147461 6.00781 0.118164 6.15723 0.118164 6.30957C0.118164 6.46777 0.147461 6.62305 0.206055 6.77539C0.264648 6.92188 0.349609 7.04785 0.460938 7.15332L5.09277 11.7236C5.32715 11.958 5.59961 12.0752 5.91016 12.0752C6.24414 12.0752 6.51074 11.9727 6.70996 11.7676C6.91504 11.5625 7.01758 11.3018 7.01758 10.9854C7.01758 10.8154 6.98535 10.666 6.9209 10.5371C6.85645 10.4023 6.76855 10.2822 6.65723 10.1768L4.88184 8.44531L2.77246 6.70508L2.36816 7.31152L5.46191 7.45215H10.1904C11.0049 7.45215 11.7021 7.60156 12.2822 7.90039C12.8682 8.19922 13.3164 8.61523 13.627 9.14844C13.9375 9.67578 14.0928 10.2852 14.0928 10.9766C14.0928 11.668 13.9375 12.2803 13.627 12.8135C13.3164 13.3467 12.8682 13.7656 12.2822 14.0703C11.7021 14.375 11.0049 14.5273 10.1904 14.5273H8.22168C7.8877 14.5273 7.60938 14.6387 7.38672 14.8613C7.16992 15.084 7.06152 15.3535 7.06152 15.6699C7.06152 15.9805 7.16992 16.2471 7.38672 16.4697C7.60938 16.6924 7.8877 16.8037 8.22168 16.8037H10.3135C11.5498 16.8037 12.6162 16.5664 13.5127 16.0918C14.415 15.6172 15.1094 14.9463 15.5957 14.0791C16.082 13.2119 16.3252 12.1953 16.3252 11.0293Z" fill="#D9DCDE"/>
</svg>
