<svg width="19" height="19" viewBox="0 0 19 19" fill="none" xmlns="http://www.w3.org/2000/svg">
<path d="M1.23438 17.9863C1.3457 17.9863 1.45996 17.9658 1.57715 17.9248C1.69434 17.8896 1.82324 17.8311 1.96387 17.749L6.4375 15.3408L11.2979 18.0654C11.6143 18.2412 11.9424 18.3291 12.2822 18.3291C12.6045 18.3291 12.8975 18.2529 13.1611 18.1006L17.7578 15.4902C18.0215 15.3438 18.2148 15.165 18.3379 14.9541C18.4609 14.7373 18.5225 14.4824 18.5225 14.1895V2.35059C18.5225 2.02832 18.4346 1.7793 18.2588 1.60352C18.0889 1.42773 17.8457 1.33984 17.5293 1.33984C17.418 1.33984 17.3037 1.36035 17.1865 1.40137C17.0693 1.43652 16.9375 1.49219 16.791 1.56836L12.1328 4.16113L7.36035 1.23438C7.09082 1.07031 6.79492 0.988281 6.47266 0.988281C6.14453 0.988281 5.84277 1.07031 5.56738 1.23438L0.99707 3.83594C0.739258 3.98242 0.548828 4.16406 0.425781 4.38086C0.302734 4.5918 0.241211 4.84668 0.241211 5.14551V16.9668C0.241211 17.2949 0.326172 17.5469 0.496094 17.7227C0.671875 17.8984 0.917969 17.9863 1.23438 17.9863ZM5.86621 13.9434L1.90234 16.123C1.84375 16.1523 1.7998 16.167 1.77051 16.167C1.69434 16.167 1.65625 16.1201 1.65625 16.0264V5.48828C1.65625 5.38281 1.67676 5.29199 1.71777 5.21582C1.76465 5.13379 1.84082 5.06348 1.94629 5.00488L5.5498 2.89551C5.6084 2.86621 5.66113 2.83691 5.70801 2.80762C5.76074 2.77832 5.81348 2.74902 5.86621 2.71973V13.9434ZM7.28125 14.084V2.9043C7.32812 2.92773 7.375 2.9541 7.42188 2.9834C7.46875 3.00684 7.51562 3.0332 7.5625 3.0625L11.4824 5.45312V16.4395C11.418 16.4043 11.3535 16.3691 11.2891 16.334C11.2246 16.3047 11.1602 16.2725 11.0957 16.2373L7.28125 14.084ZM12.8975 16.5977V5.36523L16.8613 3.20312C16.9199 3.17383 16.9609 3.15918 16.9844 3.15918C17.0254 3.15918 17.0547 3.1709 17.0723 3.19434C17.0957 3.21777 17.1074 3.25293 17.1074 3.2998V13.8379C17.1074 13.9434 17.084 14.0371 17.0371 14.1191C16.9961 14.2012 16.9229 14.2715 16.8174 14.3301L13.293 16.3779C13.2285 16.4189 13.1611 16.457 13.0908 16.4922C13.0264 16.5273 12.9619 16.5625 12.8975 16.5977Z" fill="#002532"/>
</svg>
