<svg width="19" height="18" viewBox="0 0 19 18" fill="none" xmlns="http://www.w3.org/2000/svg">
<path d="M3.18555 17.7871H15.8809C16.8249 17.7871 17.5312 17.5527 18 17.084C18.4753 16.6152 18.7129 15.9186 18.7129 14.9941V3.70508C18.7129 2.7806 18.4753 2.08398 18 1.61523C17.5312 1.14648 16.8249 0.912109 15.8809 0.912109H3.18555C2.24154 0.912109 1.5319 1.14648 1.05664 1.61523C0.587891 2.07747 0.353516 2.77409 0.353516 3.70508V14.9941C0.353516 15.9251 0.587891 16.6217 1.05664 17.084C1.5319 17.5527 2.24154 17.7871 3.18555 17.7871ZM3.06836 16.4395C2.62565 16.4395 2.28711 16.3223 2.05273 16.0879C1.82487 15.86 1.71094 15.5182 1.71094 15.0625V6.46875C1.71094 6.00651 1.82487 5.66146 2.05273 5.43359C2.28711 5.19922 2.62565 5.08203 3.06836 5.08203H15.9883C16.4245 5.08203 16.763 5.19922 17.0039 5.43359C17.2448 5.66146 17.3652 6.00651 17.3652 6.46875V15.0625C17.3652 15.5182 17.2448 15.86 17.0039 16.0879C16.763 16.3223 16.4245 16.4395 15.9883 16.4395H3.06836ZM7.72656 8.39258H8.26367C8.41992 8.39258 8.52409 8.36654 8.57617 8.31445C8.63477 8.25586 8.66406 8.14844 8.66406 7.99219V7.45508C8.66406 7.29883 8.63477 7.19466 8.57617 7.14258C8.52409 7.09049 8.41992 7.06445 8.26367 7.06445H7.72656C7.57031 7.06445 7.45964 7.09049 7.39453 7.14258C7.33594 7.19466 7.30664 7.29883 7.30664 7.45508V7.99219C7.30664 8.14844 7.33594 8.25586 7.39453 8.31445C7.45964 8.36654 7.57031 8.39258 7.72656 8.39258ZM10.8125 8.39258H11.3594C11.5156 8.39258 11.6198 8.36654 11.6719 8.31445C11.7305 8.25586 11.7598 8.14844 11.7598 7.99219V7.45508C11.7598 7.29883 11.7305 7.19466 11.6719 7.14258C11.6198 7.09049 11.5156 7.06445 11.3594 7.06445H10.8125C10.6562 7.06445 10.5488 7.09049 10.4902 7.14258C10.4382 7.19466 10.4121 7.29883 10.4121 7.45508V7.99219C10.4121 8.14844 10.4382 8.25586 10.4902 8.31445C10.5488 8.36654 10.6562 8.39258 10.8125 8.39258ZM13.8984 8.39258H14.4453C14.6016 8.39258 14.709 8.36654 14.7676 8.31445C14.8262 8.25586 14.8555 8.14844 14.8555 7.99219V7.45508C14.8555 7.29883 14.8262 7.19466 14.7676 7.14258C14.709 7.09049 14.6016 7.06445 14.4453 7.06445H13.8984C13.7487 7.06445 13.6445 7.09049 13.5859 7.14258C13.5273 7.19466 13.498 7.29883 13.498 7.45508V7.99219C13.498 8.14844 13.5273 8.25586 13.5859 8.31445C13.6445 8.36654 13.7487 8.39258 13.8984 8.39258ZM4.62109 11.4395H5.16797C5.32422 11.4395 5.43164 11.4102 5.49023 11.3516C5.54883 11.293 5.57812 11.1888 5.57812 11.0391V10.4922C5.57812 10.3424 5.54883 10.2415 5.49023 10.1895C5.43164 10.1309 5.32422 10.1016 5.16797 10.1016H4.62109C4.47135 10.1016 4.36719 10.1309 4.30859 10.1895C4.25 10.2415 4.2207 10.3424 4.2207 10.4922V11.0391C4.2207 11.1888 4.25 11.293 4.30859 11.3516C4.36719 11.4102 4.47135 11.4395 4.62109 11.4395ZM7.72656 11.4395H8.26367C8.41992 11.4395 8.52409 11.4102 8.57617 11.3516C8.63477 11.293 8.66406 11.1888 8.66406 11.0391V10.4922C8.66406 10.3424 8.63477 10.2415 8.57617 10.1895C8.52409 10.1309 8.41992 10.1016 8.26367 10.1016H7.72656C7.57031 10.1016 7.45964 10.1309 7.39453 10.1895C7.33594 10.2415 7.30664 10.3424 7.30664 10.4922V11.0391C7.30664 11.1888 7.33594 11.293 7.39453 11.3516C7.45964 11.4102 7.57031 11.4395 7.72656 11.4395ZM10.8125 11.4395H11.3594C11.5156 11.4395 11.6198 11.4102 11.6719 11.3516C11.7305 11.293 11.7598 11.1888 11.7598 11.0391V10.4922C11.7598 10.3424 11.7305 10.2415 11.6719 10.1895C11.6198 10.1309 11.5156 10.1016 11.3594 10.1016H10.8125C10.6562 10.1016 10.5488 10.1309 10.4902 10.1895C10.4382 10.2415 10.4121 10.3424 10.4121 10.4922V11.0391C10.4121 11.1888 10.4382 11.293 10.4902 11.3516C10.5488 11.4102 10.6562 11.4395 10.8125 11.4395ZM13.8984 11.4395H14.4453C14.6016 11.4395 14.709 11.4102 14.7676 11.3516C14.8262 11.293 14.8555 11.1888 14.8555 11.0391V10.4922C14.8555 10.3424 14.8262 10.2415 14.7676 10.1895C14.709 10.1309 14.6016 10.1016 14.4453 10.1016H13.8984C13.7487 10.1016 13.6445 10.1309 13.5859 10.1895C13.5273 10.2415 13.498 10.3424 13.498 10.4922V11.0391C13.498 11.1888 13.5273 11.293 13.5859 11.3516C13.6445 11.4102 13.7487 11.4395 13.8984 11.4395ZM4.62109 14.4766H5.16797C5.32422 14.4766 5.43164 14.4505 5.49023 14.3984C5.54883 14.3464 5.57812 14.2422 5.57812 14.0859V13.5488C5.57812 13.3926 5.54883 13.2884 5.49023 13.2363C5.43164 13.1777 5.32422 13.1484 5.16797 13.1484H4.62109C4.47135 13.1484 4.36719 13.1777 4.30859 13.2363C4.25 13.2884 4.2207 13.3926 4.2207 13.5488V14.0859C4.2207 14.2422 4.25 14.3464 4.30859 14.3984C4.36719 14.4505 4.47135 14.4766 4.62109 14.4766ZM7.72656 14.4766H8.26367C8.41992 14.4766 8.52409 14.4505 8.57617 14.3984C8.63477 14.3464 8.66406 14.2422 8.66406 14.0859V13.5488C8.66406 13.3926 8.63477 13.2884 8.57617 13.2363C8.52409 13.1777 8.41992 13.1484 8.26367 13.1484H7.72656C7.57031 13.1484 7.45964 13.1777 7.39453 13.2363C7.33594 13.2884 7.30664 13.3926 7.30664 13.5488V14.0859C7.30664 14.2422 7.33594 14.3464 7.39453 14.3984C7.45964 14.4505 7.57031 14.4766 7.72656 14.4766ZM10.8125 14.4766H11.3594C11.5156 14.4766 11.6198 14.4505 11.6719 14.3984C11.7305 14.3464 11.7598 14.2422 11.7598 14.0859V13.5488C11.7598 13.3926 11.7305 13.2884 11.6719 13.2363C11.6198 13.1777 11.5156 13.1484 11.3594 13.1484H10.8125C10.6562 13.1484 10.5488 13.1777 10.4902 13.2363C10.4382 13.2884 10.4121 13.3926 10.4121 13.5488V14.0859C10.4121 14.2422 10.4382 14.3464 10.4902 14.3984C10.5488 14.4505 10.6562 14.4766 10.8125 14.4766Z" fill="#002532"/>
</svg>
