<svg width="21" height="17" viewBox="0 0 21 17" fill="none" xmlns="http://www.w3.org/2000/svg">
<path d="M4.54785 5.96484C4.50684 6.15234 4.52734 6.2959 4.60938 6.39551C4.69141 6.49512 4.83789 6.54199 5.04883 6.53613C5.41211 6.51855 5.83105 6.50098 6.30566 6.4834C6.78613 6.45996 7.35742 6.44238 8.01953 6.43066C8.68164 6.41309 9.47266 6.4043 10.3926 6.4043C11.3184 6.4043 12.1123 6.41309 12.7744 6.43066C13.4365 6.44238 14.0049 6.45996 14.4795 6.4834C14.96 6.50098 15.3848 6.51855 15.7539 6.53613C15.959 6.54199 16.1025 6.49512 16.1846 6.39551C16.2666 6.2959 16.2871 6.15234 16.2461 5.96484C16.1934 5.73047 16.126 5.48145 16.0439 5.21777C15.9678 4.9541 15.8857 4.70801 15.7979 4.47949C15.7158 4.25098 15.6396 4.0752 15.5693 3.95215C15.4463 3.71777 15.2998 3.55078 15.1299 3.45117C14.9658 3.3457 14.7461 3.27246 14.4707 3.23145C14.2188 3.19629 13.7529 3.16992 13.0732 3.15234C12.3936 3.12891 11.5 3.11719 10.3926 3.11719C9.29102 3.11719 8.40039 3.12891 7.7207 3.15234C7.04688 3.16992 6.58105 3.19629 6.32324 3.23145C6.04785 3.27246 5.82812 3.3457 5.66406 3.45117C5.5 3.55078 5.35352 3.71777 5.22461 3.95215C5.1543 4.0752 5.07812 4.25098 4.99609 4.47949C4.91406 4.70801 4.83203 4.9541 4.75 5.21777C4.67383 5.48145 4.60645 5.73047 4.54785 5.96484ZM4.36328 12.0117C4.77344 12.0117 5.11914 11.874 5.40039 11.5986C5.68164 11.3174 5.82227 10.9688 5.82227 10.5527C5.82227 10.1426 5.68164 9.79688 5.40039 9.51562C5.11914 9.23438 4.77344 9.09375 4.36328 9.09375C3.94727 9.09375 3.59863 9.23438 3.31738 9.51562C3.04199 9.79688 2.9043 10.1426 2.9043 10.5527C2.9043 10.9688 3.04199 11.3174 3.31738 11.5986C3.59863 11.874 3.94727 12.0117 4.36328 12.0117ZM8.08984 11.6426H12.7041C13.0146 11.6426 13.2666 11.543 13.46 11.3438C13.6592 11.1445 13.7588 10.8896 13.7588 10.5791C13.7588 10.2686 13.6592 10.0166 13.46 9.82324C13.2666 9.62402 13.0146 9.52441 12.7041 9.52441H8.08984C7.78516 9.52441 7.5332 9.62402 7.33398 9.82324C7.13477 10.0166 7.03516 10.2686 7.03516 10.5791C7.03516 10.8896 7.13477 11.1445 7.33398 11.3438C7.5332 11.543 7.78516 11.6426 8.08984 11.6426ZM16.4395 12.0117C16.8555 12.0117 17.2012 11.874 17.4766 11.5986C17.7578 11.3174 17.8984 10.9688 17.8984 10.5527C17.8984 10.1426 17.7578 9.79688 17.4766 9.51562C17.2012 9.23438 16.8555 9.09375 16.4395 9.09375C16.0234 9.09375 15.6748 9.23438 15.3936 9.51562C15.1182 9.79688 14.9805 10.1426 14.9805 10.5527C14.9805 10.9688 15.1182 11.3174 15.3936 11.5986C15.6748 11.874 16.0234 12.0117 16.4395 12.0117ZM10.3926 14.6309C11.125 14.6309 11.8867 14.625 12.6777 14.6133C13.4746 14.5957 14.251 14.5723 15.0068 14.543C15.7627 14.5078 16.4541 14.4727 17.0811 14.4375C17.7139 14.3965 18.2266 14.3525 18.6191 14.3057C19.2695 14.2295 19.7734 14.0098 20.1309 13.6465C20.4941 13.2773 20.6758 12.7793 20.6758 12.1523V10.6934C20.6758 9.92578 20.6025 9.29297 20.4561 8.79492C20.3154 8.29102 20.04 7.78711 19.6299 7.2832L18.8564 6.33398C18.751 5.83594 18.625 5.34375 18.4785 4.85742C18.3379 4.37109 18.1973 3.93457 18.0566 3.54785C17.916 3.15527 17.7988 2.85645 17.7051 2.65137C17.459 2.13574 17.1104 1.72559 16.6592 1.4209C16.208 1.11035 15.6807 0.914062 15.0771 0.832031C14.8604 0.802734 14.5293 0.779297 14.084 0.761719C13.6387 0.738281 13.1025 0.723633 12.4756 0.717773C11.8545 0.706055 11.1602 0.700195 10.3926 0.700195C9.63086 0.700195 8.93652 0.706055 8.30957 0.717773C7.68848 0.729492 7.15527 0.74707 6.70996 0.770508C6.26465 0.788086 5.93359 0.808594 5.7168 0.832031C5.11914 0.914062 4.5918 1.11035 4.13477 1.4209C3.68359 1.72559 3.33789 2.13574 3.09766 2.65137C3.00391 2.85645 2.88379 3.15527 2.7373 3.54785C2.59668 3.93457 2.45312 4.37109 2.30664 4.85742C2.16602 5.34375 2.04297 5.83594 1.9375 6.33398L1.16406 7.2832C0.753906 7.78711 0.475586 8.29102 0.329102 8.79492C0.188477 9.29297 0.118164 9.92578 0.118164 10.6934V12.1523C0.118164 12.7793 0.296875 13.2773 0.654297 13.6465C1.01758 14.0098 1.52441 14.2295 2.1748 14.3057C2.57324 14.3525 3.08594 14.3965 3.71289 14.4375C4.33984 14.4727 5.03125 14.5078 5.78711 14.543C6.54883 14.5723 7.3252 14.5957 8.11621 14.6133C8.91309 14.625 9.67188 14.6309 10.3926 14.6309ZM10.3926 12.9961C9.67773 12.9961 8.93945 12.9873 8.17773 12.9697C7.42188 12.9521 6.68945 12.9287 5.98047 12.8994C5.27734 12.8701 4.6416 12.8379 4.07324 12.8027C3.50488 12.7676 3.04785 12.7295 2.70215 12.6885C2.35059 12.6475 2.09863 12.5391 1.94629 12.3633C1.79395 12.1875 1.71777 11.9414 1.71777 11.625V10.5264C1.71777 9.97559 1.7793 9.53906 1.90234 9.2168C2.02539 8.88867 2.21582 8.55176 2.47363 8.20605L3.43164 6.94922C3.47852 6.70312 3.54297 6.41895 3.625 6.09668C3.70703 5.76855 3.79785 5.4375 3.89746 5.10352C3.99707 4.76367 4.09961 4.44727 4.20508 4.1543C4.31055 3.86133 4.4043 3.62695 4.48633 3.45117C4.63281 3.14648 4.83496 2.91211 5.09277 2.74805C5.35059 2.58398 5.65527 2.48145 6.00684 2.44043C6.21191 2.41113 6.5166 2.38477 6.9209 2.36133C7.3252 2.33789 7.82031 2.32031 8.40625 2.30859C8.99219 2.29688 9.6543 2.29102 10.3926 2.29102C11.1367 2.29102 11.8018 2.2998 12.3877 2.31738C12.9795 2.3291 13.4775 2.34668 13.8818 2.37012C14.2861 2.39355 14.585 2.41699 14.7783 2.44043C15.1357 2.48145 15.4434 2.58691 15.7012 2.75684C15.959 2.9209 16.1611 3.15527 16.3076 3.45996C16.3955 3.62988 16.4893 3.8584 16.5889 4.14551C16.6885 4.43262 16.7881 4.74609 16.8877 5.08594C16.9873 5.41992 17.0781 5.75098 17.1602 6.0791C17.248 6.40723 17.3154 6.69727 17.3623 6.94922L18.3203 8.20605C18.5781 8.55176 18.7686 8.88867 18.8916 9.2168C19.0146 9.53906 19.0762 9.97559 19.0762 10.5264V11.625C19.0762 11.9414 19 12.1875 18.8477 12.3633C18.6953 12.5391 18.4404 12.6475 18.083 12.6885C17.7432 12.7295 17.2891 12.7676 16.7207 12.8027C16.1523 12.8379 15.5137 12.8701 14.8047 12.8994C14.1016 12.9287 13.3721 12.9521 12.6162 12.9697C11.8604 12.9873 11.1191 12.9961 10.3926 12.9961ZM1.7002 16.9424H2.72852C3.05078 16.9424 3.32324 16.8311 3.5459 16.6084C3.76855 16.3916 3.87988 16.1191 3.87988 15.791V13.6729L0.548828 12.9082V15.791C0.548828 16.1191 0.657227 16.3916 0.874023 16.6084C1.09668 16.8311 1.37207 16.9424 1.7002 16.9424ZM18.0742 16.9424H19.0938C19.4219 16.9424 19.6943 16.8311 19.9111 16.6084C20.1338 16.3916 20.2451 16.1191 20.2451 15.791V12.9082L16.9141 13.6729V15.791C16.9141 16.1191 17.0254 16.3916 17.248 16.6084C17.4707 16.8311 17.7461 16.9424 18.0742 16.9424Z" fill="#002532"/>
</svg>
