<svg width="98" height="29" viewBox="0 0 98 29" fill="none" xmlns="http://www.w3.org/2000/svg">
<path d="M94.3704 0.580906C96.0509 0.580906 97.4184 1.94662 97.4184 3.625V25.375C97.4184 27.0534 96.0509 28.4191 94.3704 28.4191H3.62963C1.94911 28.4191 0.581648 27.0534 0.581648 25.375V3.625C0.581648 1.94662 1.94911 0.580906 3.62963 0.580906H94.3704ZM94.3704 0H3.62963C1.63424 0 0 1.63216 0 3.625V25.375C0 27.3678 1.63424 29 3.62963 29H94.3704C96.3658 29 98 27.3678 98 25.375V3.625C98 1.63216 96.3658 0 94.3704 0Z" />
<path d="M34.4218 7.42664C34.4218 8.03202 34.2403 8.51686 33.8828 8.87846C33.4717 9.30711 32.9364 9.5228 32.2803 9.5228C31.6533 9.5228 31.1179 9.30349 30.6787 8.87121C30.2386 8.43258 30.019 7.89427 30.019 7.24993C30.019 6.60558 30.2386 6.06727 30.6787 5.63227C31.1179 5.19636 31.6533 4.97705 32.2803 4.97705C32.5925 4.97705 32.8901 5.04139 33.1741 5.16102C33.4572 5.28155 33.6877 5.44468 33.8547 5.64586L33.4754 6.0283C33.1841 5.68483 32.7875 5.51536 32.2803 5.51536C31.823 5.51536 31.4264 5.67486 31.0898 5.99658C30.7568 6.31921 30.5898 6.73699 30.5898 7.24993C30.5898 7.76286 30.7568 8.18427 31.0898 8.50689C31.4264 8.82499 31.823 8.98811 32.2803 8.98811C32.7658 8.98811 33.1741 8.82499 33.4962 8.50327C33.7086 8.2903 33.8292 7.99668 33.861 7.62149H32.2803V7.09768H34.3891C34.4145 7.21096 34.4218 7.32061 34.4218 7.42664Z"  stroke="white" stroke-width="0.16" stroke-miterlimit="10"/>
<path d="M37.7672 5.61069H35.7864V6.98819H37.5721V7.512H35.7864V8.8895H37.7672V9.42328H35.2256V5.0769H37.7672V5.61069Z"  stroke="white" stroke-width="0.16" stroke-miterlimit="10"/>
<path d="M40.1283 9.42328H39.5676V5.61069H38.3525V5.0769H41.3443V5.61069H40.1283V9.42328Z"  stroke="white" stroke-width="0.16" stroke-miterlimit="10"/>
<path d="M43.5093 9.42328V5.0769H44.0691V9.42328H43.5093Z"  stroke="white" stroke-width="0.16" stroke-miterlimit="10"/>
<path d="M46.5507 9.42328H45.9945V5.61069H44.7749V5.0769H47.7702V5.61069H46.5507V9.42328Z"  stroke="white" stroke-width="0.16" stroke-miterlimit="10"/>
<path d="M53.4347 8.86396C53.0055 9.30349 52.4738 9.5228 51.8395 9.5228C51.2016 9.5228 50.6699 9.30349 50.2407 8.86396C49.8124 8.42533 49.5991 7.88702 49.5991 7.24993C49.5991 6.61283 49.8124 6.07452 50.2407 5.63589C50.6699 5.19636 51.2016 4.97705 51.8395 4.97705C52.4702 4.97705 53.0019 5.19636 53.4311 5.63952C53.863 6.08177 54.0763 6.61646 54.0763 7.24993C54.0763 7.88702 53.863 8.42533 53.4347 8.86396ZM50.6553 8.49964C50.9784 8.82499 51.3713 8.98811 51.8395 8.98811C52.3041 8.98811 52.7006 8.82499 53.02 8.49964C53.3422 8.1743 53.5055 7.75652 53.5055 7.24993C53.5055 6.74333 53.3422 6.32555 53.02 6.00021C52.7006 5.67486 52.3041 5.51174 51.8395 5.51174C51.3713 5.51174 50.9784 5.67486 50.6553 6.00021C50.3332 6.32555 50.1699 6.74333 50.1699 7.24993C50.1699 7.75652 50.3332 8.1743 50.6553 8.49964Z"  stroke="white" stroke-width="0.16" stroke-miterlimit="10"/>
<path d="M54.8628 9.42328V5.0769H55.5433L57.6594 8.45722H57.6839L57.6594 7.62165V5.0769H58.2193V9.42328H57.6349L55.419 5.87622H55.3945L55.419 6.7154V9.42328H54.8628Z"  stroke="white" stroke-width="0.16" stroke-miterlimit="10"/>
<path d="M49.4609 15.7704C47.7559 15.7704 46.3631 17.0664 46.3631 18.8544C46.3631 20.6279 47.7559 21.9375 49.4609 21.9375C51.1696 21.9375 52.5625 20.6279 52.5625 18.8544C52.5625 17.0664 51.1696 15.7704 49.4609 15.7704ZM49.4609 20.7231C48.5254 20.7231 47.7205 19.9519 47.7205 18.8544C47.7205 17.7424 48.5254 16.9848 49.4609 16.9848C50.3965 16.9848 51.205 17.7424 51.205 18.8544C51.205 19.9519 50.3965 20.7231 49.4609 20.7231ZM42.7017 15.7704C40.993 15.7704 39.6038 17.0664 39.6038 18.8544C39.6038 20.6279 40.993 21.9375 42.7017 21.9375C44.4094 21.9375 45.7996 20.6279 45.7996 18.8544C45.7996 17.0664 44.4094 15.7704 42.7017 15.7704ZM42.7017 20.7231C41.7652 20.7231 40.9576 19.9519 40.9576 18.8544C40.9576 17.7424 41.7652 16.9848 42.7017 16.9848C43.6372 16.9848 44.4421 17.7424 44.4421 18.8544C44.4421 19.9519 43.6372 20.7231 42.7017 20.7231ZM34.6584 16.7156V18.0261H37.7917C37.7 18.7583 37.455 19.2966 37.0794 19.6718C36.622 20.125 35.9097 20.6279 34.6584 20.6279C32.7302 20.6279 31.2202 19.0737 31.2202 17.1479C31.2202 15.2221 32.7302 13.6679 34.6584 13.6679C35.701 13.6679 36.4596 14.0748 37.0195 14.6023L37.9441 13.6788C37.161 12.9321 36.1193 12.3584 34.6584 12.3584C32.0142 12.3584 29.792 14.5071 29.792 17.1479C29.792 19.7887 32.0142 21.9375 34.6584 21.9375C36.0876 21.9375 37.161 21.4698 38.0049 20.5926C38.8697 19.7289 39.1392 18.5146 39.1392 17.534C39.1392 17.2295 39.1138 16.9495 39.0684 16.7156H34.6584ZM67.5483 17.7316C67.2933 17.0419 66.5066 15.7704 64.9041 15.7704C63.3161 15.7704 61.9941 17.0201 61.9941 18.8544C61.9941 20.5817 63.3025 21.9375 65.0566 21.9375C66.4748 21.9375 67.2933 21.0738 67.63 20.5708L66.5774 19.8703C66.2262 20.3832 65.748 20.7231 65.0566 20.7231C64.3696 20.7231 63.8769 20.4086 63.5611 19.7887L67.6908 18.0823L67.5483 17.7316ZM63.3379 18.7583C63.3025 17.5693 64.2626 16.9603 64.9504 16.9603C65.4894 16.9603 65.9467 17.2295 66.0992 17.6146L63.3379 18.7583ZM59.9814 21.7499H61.3389V12.6874H59.9814V21.7499ZM57.7583 16.4574H57.7129C57.408 16.0967 56.8264 15.7704 56.0896 15.7704C54.5433 15.7704 53.1296 17.1262 53.1296 18.8644C53.1296 20.5926 54.5433 21.9375 56.0896 21.9375C56.8264 21.9375 57.408 21.6085 57.7129 21.2369H57.7583V21.6792C57.7583 22.8582 57.1276 23.4917 56.1104 23.4917C55.2811 23.4917 54.7666 22.8936 54.5542 22.3906L53.3737 22.8827C53.714 23.7001 54.615 24.7061 56.1104 24.7061C57.702 24.7061 59.045 23.7708 59.045 21.4952V15.958H57.7583V16.4574ZM56.2057 20.7231C55.2702 20.7231 54.4871 19.941 54.4871 18.8644C54.4871 17.7778 55.2702 16.9848 56.2057 16.9848C57.1276 16.9848 57.8545 17.7778 57.8545 18.8644C57.8545 19.941 57.1276 20.7231 56.2057 20.7231ZM73.9038 12.6874H70.6571V21.7499H72.0109V18.3161H73.9038C75.4073 18.3161 76.8819 17.2295 76.8819 15.5013C76.8819 13.774 75.4037 12.6874 73.9038 12.6874ZM73.9392 17.0555H72.0109V13.948H73.9392C74.95 13.948 75.5271 14.7862 75.5271 15.5013C75.5271 16.2027 74.95 17.0555 73.9392 17.0555ZM82.3082 15.7532C81.33 15.7532 80.3128 16.1846 79.8945 17.1407L81.0959 17.6436C81.3545 17.1407 81.83 16.9776 82.3327 16.9776C83.035 16.9776 83.7473 17.399 83.7582 18.143V18.2381C83.5132 18.0968 82.9887 17.8874 82.3436 17.8874C81.0496 17.8874 79.7311 18.5988 79.7311 19.9265C79.7311 21.1409 80.791 21.923 81.9824 21.923C82.8935 21.923 83.3962 21.5124 83.7119 21.0348H83.7582V21.7354H85.0658V18.259C85.0658 16.6522 83.8644 15.7532 82.3082 15.7532ZM82.1448 20.7195C81.702 20.7195 81.085 20.5001 81.085 19.9519C81.085 19.2504 81.8545 18.9813 82.5205 18.9813C83.1167 18.9813 83.3962 19.1127 83.7582 19.2858C83.652 20.125 82.9288 20.7195 82.1448 20.7195ZM89.8297 15.9517L88.2735 19.8803H88.2272L86.6184 15.9517H85.1583L87.5757 21.4417L86.1964 24.4967H87.6111L91.336 15.9517H89.8297ZM77.626 21.7499H78.9834V12.6874H77.626V21.7499Z" />
<path class="path-dfdfdf" d="M7.57493 5.46554C7.36169 5.68847 7.23828 6.03557 7.23828 6.48507V22.5184C7.23828 22.9679 7.36169 23.315 7.57493 23.538L7.62756 23.5869L16.6236 14.606V14.3939L7.62756 5.41298L7.57493 5.46554Z" />
<path class="path-e8e8e8" d="M19.6189 17.6011L16.6235 14.6059V14.3939L19.6225 11.3987L19.6897 11.4377L23.2413 13.4559C24.2548 14.0286 24.2548 14.9711 23.2413 15.5475L19.6897 17.5621L19.6189 17.6011Z" />
<path d="M19.69 17.562L16.6239 14.4998L7.5752 23.5379C7.91184 23.8913 8.46082 23.9339 9.08512 23.5805L19.69 17.562Z" />
<path class="path-f1f1f1" d="M19.69 11.4378L9.08512 5.41938C8.46082 5.06956 7.91184 5.11216 7.5752 5.4656L16.6239 14.5L19.69 11.4378Z" />
</svg>
