<svg width="144" height="10" viewBox="0 0 144 10" fill="none" xmlns="http://www.w3.org/2000/svg">
<g clip-path="url(#clip0_2401_3915)">
<path d="M36.9647 0H23.6083C22.0709 0 20.9574 0.94613 20.9574 2.52439V7.47502C20.9574 9.05564 22.0715 9.99941 23.6083 9.99941H36.9647C38.5022 9.99941 39.6163 9.05328 39.6163 7.47502V2.52439C39.6192 0.94613 38.5016 0 36.9647 0ZM37.4443 6.8825C37.4443 7.68671 36.866 7.99657 36.1611 7.99657H24.571C23.8656 7.99657 23.2701 7.68671 23.2701 6.8825V3.1175C23.2701 2.31388 23.8484 2.00284 24.571 2.00284H36.1611C36.8808 2.00284 37.4443 2.31388 37.4443 3.1175V6.8825Z" fill="white"/>
<path d="M16.374 0H0V9.99941H2.28549V7.05281H15.7536C17.5726 7.05281 18.6163 5.78263 18.6163 4.03702V2.87742C18.6163 1.49548 17.9392 0 16.374 0ZM16.374 4.1884C16.374 4.82349 15.8808 5.04878 15.3167 5.04878H2.28549V2.00402H15.3155C15.9778 2.00402 16.3728 2.39903 16.3728 3.06132L16.374 4.1884Z" fill="white"/>
<path d="M60.7705 4.59809V2.00274C60.7705 0.775723 59.6985 0.000488281 58.5282 0.000488281H42.0845V9.99931H44.3688V7.0527H56.0464C57.7808 7.0527 58.4295 8.49082 58.53 9.99931H60.7723C60.6316 8.60317 60.3495 7.16506 58.967 6.51637C59.9243 6.26209 60.7705 5.68436 60.7705 4.59809ZM58.5282 4.28764C58.5282 4.66786 58.4153 5.04927 57.9647 5.04927H44.3688V2.00214H57.6258C58.2887 2.00214 58.5282 2.28421 58.5282 2.93349V4.28764Z" fill="white"/>
<path d="M81.4594 0V2.00343H66.2569C65.6502 2.00343 65.3965 2.44042 65.3965 3.01874C65.3965 3.56868 65.6786 3.99208 66.2569 3.99208H78.6536C80.6848 3.99208 81.7876 4.96541 81.7876 7.03802C81.7876 8.77299 80.8569 9.99941 79.0527 9.99941H63.4652V7.99716H78.6548C79.1763 7.99716 79.4022 7.54598 79.4022 7.0806C79.4022 6.5484 79.2904 5.98072 78.6548 5.98072H65.7773C64.1133 5.98072 63.1548 4.69753 63.1548 3.1039C63.1542 1.11525 64.2263 0 66.2575 0H81.4594Z" fill="white"/>
<path d="M101.937 0V2.00343H86.9316C86.5768 2.00343 86.452 2.34167 86.452 2.63852V7.50458C86.452 7.80025 86.6359 7.99775 86.9316 7.99775H101.937V10H86.9316C85.2954 10 84.1825 8.87174 84.1825 7.22074V2.93537C84.1825 1.04311 84.9855 0.00177399 86.9316 0.00177399H101.937V0Z" fill="white"/>
<path d="M104.391 0.000488281H106.69V3.89263H119.962V0.000488281H122.317V9.99931H119.962V5.89547H106.69V9.99931H104.391V0.000488281Z" fill="white"/>
<path d="M124.729 0.000488281H143.486V2.00333H127.013V3.9358H143.486V5.92385H127.013V7.99706H143.486V9.99931H124.729V0.000488281Z" fill="white"/>
</g>
<defs>
<clipPath id="clip0_2401_3915">
<rect width="143.486" height="10" fill="white"/>
</clipPath>
</defs>
</svg>
