<svg width="18" height="18" viewBox="0 0 18 18" fill="none" xmlns="http://www.w3.org/2000/svg">
<path d="M0.916016 7.55566C0.916016 8.51074 1.09473 9.41016 1.45215 10.2539C1.81543 11.0918 2.31348 11.8301 2.94629 12.4688C3.58496 13.1074 4.32324 13.6084 5.16113 13.9717C6.00488 14.3291 6.9043 14.5078 7.85938 14.5078C8.51562 14.5078 9.14258 14.4199 9.74023 14.2441C10.3379 14.0625 10.8916 13.8105 11.4014 13.4883L14.8555 16.9512C15.0078 17.0977 15.1807 17.2061 15.374 17.2764C15.5732 17.3525 15.7783 17.3906 15.9893 17.3906C16.2939 17.3906 16.5635 17.3203 16.7979 17.1797C17.0322 17.0449 17.2168 16.8574 17.3516 16.6172C17.4922 16.3828 17.5625 16.1133 17.5625 15.8086C17.5625 15.6094 17.5244 15.4131 17.4482 15.2197C17.3721 15.0264 17.2607 14.8506 17.1143 14.6924L13.6865 11.2734C14.0439 10.7402 14.3193 10.1602 14.5127 9.5332C14.7119 8.90039 14.8115 8.24121 14.8115 7.55566C14.8115 6.59473 14.6299 5.69531 14.2666 4.85742C13.9092 4.01367 13.4111 3.27539 12.7725 2.64258C12.1396 2.00391 11.4014 1.50586 10.5576 1.14844C9.71973 0.785156 8.82031 0.603516 7.85938 0.603516C6.9043 0.603516 6.00488 0.785156 5.16113 1.14844C4.32324 1.50586 3.58496 2.00391 2.94629 2.64258C2.31348 3.27539 1.81543 4.01367 1.45215 4.85742C1.09473 5.69531 0.916016 6.59473 0.916016 7.55566ZM3.13965 7.55566C3.13965 6.89941 3.2627 6.28711 3.50879 5.71875C3.75488 5.15039 4.09473 4.64941 4.52832 4.21582C4.96191 3.78223 5.46289 3.44531 6.03125 3.20508C6.59961 2.95898 7.20898 2.83594 7.85938 2.83594C8.50977 2.83594 9.11914 2.95898 9.6875 3.20508C10.2617 3.44531 10.7627 3.78223 11.1904 4.21582C11.624 4.64941 11.9639 5.15039 12.21 5.71875C12.4561 6.28711 12.5791 6.89941 12.5791 7.55566C12.5791 8.20605 12.4561 8.81836 12.21 9.39258C11.9639 9.96094 11.624 10.4619 11.1904 10.8955C10.7627 11.3232 10.2617 11.6602 9.6875 11.9062C9.11914 12.1465 8.50977 12.2666 7.85938 12.2666C7.20898 12.2666 6.59961 12.1465 6.03125 11.9062C5.46289 11.6602 4.96191 11.3232 4.52832 10.8955C4.09473 10.4619 3.75488 9.96094 3.50879 9.39258C3.2627 8.81836 3.13965 8.20605 3.13965 7.55566Z" fill="#002532"/>
</svg>
