<svg width="21" height="16" viewBox="0 0 21 16" fill="none" xmlns="http://www.w3.org/2000/svg">
<path d="M4.1875 12.0928H6.34082C6.59863 12.0928 6.80664 12.0137 6.96484 11.8555C7.12305 11.6973 7.20215 11.4951 7.20215 11.249V9.62305C7.20215 9.37109 7.12305 9.16895 6.96484 9.0166C6.80664 8.8584 6.59863 8.7793 6.34082 8.7793H4.1875C3.92969 8.7793 3.72168 8.8584 3.56348 9.0166C3.40527 9.16895 3.32617 9.37109 3.32617 9.62305V11.249C3.32617 11.4951 3.40527 11.6973 3.56348 11.8555C3.72168 12.0137 3.92969 12.0928 4.1875 12.0928ZM0.953125 5.65039H20.1924V3.65527H0.953125V5.65039ZM3.00098 15.1689H18.1357C19.0557 15.1689 19.7441 14.9404 20.2012 14.4834C20.6641 14.0322 20.8955 13.3555 20.8955 12.4531V2.88184C20.8955 1.97949 20.6641 1.2998 20.2012 0.842773C19.7441 0.385742 19.0557 0.157227 18.1357 0.157227H3.00098C2.08105 0.157227 1.38965 0.385742 0.926758 0.842773C0.469727 1.29395 0.241211 1.97363 0.241211 2.88184V12.4531C0.241211 13.3555 0.469727 14.0322 0.926758 14.4834C1.38965 14.9404 2.08105 15.1689 3.00098 15.1689ZM3.01855 13.7539C2.5791 13.7539 2.24219 13.6396 2.00781 13.4111C1.77344 13.1768 1.65625 12.8311 1.65625 12.374V2.96094C1.65625 2.50391 1.77344 2.1582 2.00781 1.92383C2.24219 1.68945 2.5791 1.57227 3.01855 1.57227H18.1182C18.5518 1.57227 18.8857 1.68945 19.1201 1.92383C19.3604 2.1582 19.4805 2.50391 19.4805 2.96094V12.374C19.4805 12.8311 19.3604 13.1768 19.1201 13.4111C18.8857 13.6396 18.5518 13.7539 18.1182 13.7539H3.01855Z" fill="#D9DCDE"/>
</svg>
